{
	"asset":{
		"generator":"Khronos glTF Blender I/O v3.6.27",
		"version":"2.0"
	},
	"scene":0,
	"scenes":[
		{
			"name":"Scene",
			"nodes":[
				0
			]
		}
	],
	"nodes":[
		{
			"mesh":0,
			"name":"Cube",
			"scale":[
				6.8934783935546875,
				1,
				1
			]
		}
	],
	"materials":[
		{
			"doubleSided":true,
			"name":"Material.001",
			"pbrMetallicRoughness":{
				"baseColorFactor":[
					0.14587686955928802,
					0.16569504141807556,
					0.07085958123207092,
					1
				],
				"metallicFactor":0
			}
		},
		{
			"doubleSided":true,
			"name":"\u30de\u30c6\u30ea\u30a2\u30eb",
			"pbrMetallicRoughness":{
				"baseColorFactor":[
					0.12522701919078827,
					0.6350944638252258,
					0.32301509380340576,
					1
				],
				"metallicFactor":0,
				"roughnessFactor":0.5
			}
		}
	],
	"meshes":[
		{
			"name":"Cube.001",
			"primitives":[
				{
					"attributes":{
						"POSITION":0,
						"NORMAL":1,
						"TEXCOORD_0":2
					},
					"indices":3,
					"material":0
				},
				{
					"attributes":{
						"POSITION":4,
						"NORMAL":5,
						"TEXCOORD_0":6
					},
					"indices":7,
					"material":1
				}
			]
		}
	],
	"accessors":[
		{
			"bufferView":0,
			"componentType":5126,
			"count":25,
			"max":[
				0.14506465196609497,
				2.1007580757141113,
				0.9971380233764648
			],
			"min":[
				-0.14506465196609497,
				0.01917243003845215,
				-1.0268263816833496
			],
			"type":"VEC3"
		},
		{
			"bufferView":1,
			"componentType":5126,
			"count":25,
			"type":"VEC3"
		},
		{
			"bufferView":2,
			"componentType":5126,
			"count":25,
			"type":"VEC2"
		},
		{
			"bufferView":3,
			"componentType":5123,
			"count":30,
			"type":"SCALAR"
		},
		{
			"bufferView":4,
			"componentType":5126,
			"count":6,
			"max":[
				0.14506465196609497,
				2.1007580757141113,
				0.9731740951538086
			],
			"min":[
				-0.14506465196609497,
				2.1007580757141113,
				-1.0268263816833496
			],
			"type":"VEC3"
		},
		{
			"bufferView":5,
			"componentType":5126,
			"count":6,
			"type":"VEC3"
		},
		{
			"bufferView":6,
			"componentType":5126,
			"count":6,
			"type":"VEC2"
		},
		{
			"bufferView":7,
			"componentType":5123,
			"count":6,
			"type":"SCALAR"
		}
	],
	"bufferViews":[
		{
			"buffer":0,
			"byteLength":300,
			"byteOffset":0,
			"target":34962
		},
		{
			"buffer":0,
			"byteLength":300,
			"byteOffset":300,
			"target":34962
		},
		{
			"buffer":0,
			"byteLength":200,
			"byteOffset":600,
			"target":34962
		},
		{
			"buffer":0,
			"byteLength":60,
			"byteOffset":800,
			"target":34963
		},
		{
			"buffer":0,
			"byteLength":72,
			"byteOffset":860,
			"target":34962
		},
		{
			"buffer":0,
			"byteLength":72,
			"byteOffset":932,
			"target":34962
		},
		{
			"buffer":0,
			"byteLength":48,
			"byteOffset":1004,
			"target":34962
		},
		{
			"buffer":0,
			"byteLength":12,
			"byteOffset":1052,
			"target":34963
		}
	],
	"buffers":[
		{
			"byteLength":1064,
			"uri":"Ground.bin"
		}
	]
}
