{
	"asset":{
		"generator":"Khronos glTF Blender I/O v3.6.27",
		"version":"2.0"
	},
	"scene":0,
	"scenes":[
		{
			"name":"Scene",
			"nodes":[
				0,
				1,
				2,
				3,
				4,
				5,
				6
			]
		}
	],
	"nodes":[
		{
			"mesh":0,
			"name":"Head",
			"rotation":[
				-0.500110924243927,
				0.5001108646392822,
				-0.4998891055583954,
				0.4998890459537506
			],
			"scale":[
				0.1935085952281952,
				1.2761651277542114,
				0.19350861012935638
			],
			"translation":[
				0.016253091394901276,
				-0.03563433885574341,
				0.2739025056362152
			]
		},
		{
			"mesh":1,
			"name":"Wings",
			"rotation":[
				-0.500110924243927,
				0.5001108646392822,
				-0.4998891055583954,
				0.4998890459537506
			],
			"scale":[
				0.1935085952281952,
				1.2761651277542114,
				0.19350861012935638
			],
			"translation":[
				0.016253091394901276,
				-0.03563433885574341,
				0.2739025056362152
			]
		},
		{
			"mesh":2,
			"name":"MiddleLegs",
			"rotation":[
				-0.500110924243927,
				0.5001108646392822,
				-0.4998891055583954,
				0.4998890459537506
			],
			"scale":[
				0.1935085952281952,
				1.2761651277542114,
				0.19350861012935638
			],
			"translation":[
				0.016253091394901276,
				-0.03563433885574341,
				0.2739025056362152
			]
		},
		{
			"mesh":3,
			"name":"FrontLegs",
			"rotation":[
				-0.500110924243927,
				0.5001108646392822,
				-0.4998891055583954,
				0.4998890459537506
			],
			"scale":[
				0.1935085952281952,
				1.2761651277542114,
				0.19350861012935638
			],
			"translation":[
				0.016253091394901276,
				-0.03563433885574341,
				0.2739025056362152
			]
		},
		{
			"mesh":4,
			"name":"HindLegs",
			"rotation":[
				-0.500110924243927,
				0.5001108646392822,
				-0.4998891055583954,
				0.4998890459537506
			],
			"scale":[
				0.1935085952281952,
				1.2761651277542114,
				0.19350861012935638
			],
			"translation":[
				0.016253091394901276,
				-0.03563433885574341,
				0.2739025056362152
			]
		},
		{
			"mesh":5,
			"name":"Abdomen",
			"rotation":[
				-0.500110924243927,
				0.5001108646392822,
				-0.4998891055583954,
				0.4998890459537506
			],
			"scale":[
				0.1935085952281952,
				1.2761651277542114,
				0.19350861012935638
			],
			"translation":[
				0.016253091394901276,
				-0.03563433885574341,
				0.2739025056362152
			]
		},
		{
			"mesh":6,
			"name":"Thorax",
			"rotation":[
				-0.500110924243927,
				0.5001108646392822,
				-0.4998891055583954,
				0.4998890459537506
			],
			"scale":[
				0.1935085952281952,
				1.2761651277542114,
				0.19350861012935638
			],
			"translation":[
				0.016253091394901276,
				-0.03563433885574341,
				0.2739025056362152
			]
		}
	],
	"materials":[
		{
			"doubleSided":true,
			"name":"headColor",
			"pbrMetallicRoughness":{
				"baseColorFactor":[
					0.597201943397522,
					0.09989873319864273,
					0.054480284452438354,
					1
				],
				"metallicFactor":0
			}
		},
		{
			"doubleSided":true,
			"name":"BottomColor",
			"pbrMetallicRoughness":{
				"baseColorFactor":[
					0.6583748459815979,
					0.26225045323371887,
					0,
					1
				],
				"metallicFactor":0
			}
		},
		{
			"doubleSided":true,
			"name":"wingsColor",
			"pbrMetallicRoughness":{
				"baseColorFactor":[
					0.2704974412918091,
					0.558340311050415,
					0.06847833096981049,
					1
				],
				"metallicFactor":0,
				"roughnessFactor":0.5
			}
		},
		{
			"doubleSided":true,
			"name":"middleLegs",
			"pbrMetallicRoughness":{
				"baseColorFactor":[
					0.4969330430030823,
					0.08865543454885483,
					0.013702116906642914,
					1
				],
				"metallicFactor":0
			}
		},
		{
			"doubleSided":true,
			"name":"frontLegs",
			"pbrMetallicRoughness":{
				"baseColorFactor":[
					0.003768864320591092,
					0.003768864320591092,
					0.003768864320591092,
					1
				],
				"metallicFactor":0
			}
		},
		{
			"doubleSided":true,
			"name":"hindLegs",
			"pbrMetallicRoughness":{
				"baseColorFactor":[
					0.68668532371521,
					0.18447475135326385,
					0.08650050312280655,
					1
				],
				"metallicFactor":0
			}
		},
		{
			"doubleSided":true,
			"name":"abdomenColor",
			"pbrMetallicRoughness":{
				"baseColorFactor":[
					0.597201943397522,
					0.09758733212947845,
					0.04970657452940941,
					1
				],
				"metallicFactor":0
			}
		},
		{
			"doubleSided":true,
			"name":"thoraxColor",
			"pbrMetallicRoughness":{
				"baseColorFactor":[
					1,
					0.07618512958288193,
					0.03954627364873886,
					1
				],
				"metallicFactor":0
			}
		}
	],
	"meshes":[
		{
			"name":"\u5186\u67f1",
			"primitives":[
				{
					"attributes":{
						"POSITION":0,
						"NORMAL":1,
						"TEXCOORD_0":2
					},
					"indices":3,
					"material":0
				},
				{
					"attributes":{
						"POSITION":4,
						"NORMAL":5,
						"TEXCOORD_0":6
					},
					"indices":7,
					"material":1
				}
			]
		},
		{
			"name":"\u5186\u67f1.001",
			"primitives":[
				{
					"attributes":{
						"POSITION":8,
						"NORMAL":9,
						"TEXCOORD_0":10
					},
					"indices":11,
					"material":2
				}
			]
		},
		{
			"name":"\u5186\u67f1.004",
			"primitives":[
				{
					"attributes":{
						"POSITION":12,
						"NORMAL":13,
						"TEXCOORD_0":14
					},
					"indices":15,
					"material":3
				}
			]
		},
		{
			"name":"\u5186\u67f1.006",
			"primitives":[
				{
					"attributes":{
						"POSITION":16,
						"NORMAL":17,
						"TEXCOORD_0":18
					},
					"indices":15,
					"material":4
				}
			]
		},
		{
			"name":"\u5186\u67f1.007",
			"primitives":[
				{
					"attributes":{
						"POSITION":19,
						"NORMAL":20,
						"TEXCOORD_0":21
					},
					"indices":22,
					"material":5
				}
			]
		},
		{
			"name":"\u5186\u67f1.009",
			"primitives":[
				{
					"attributes":{
						"POSITION":23,
						"NORMAL":24,
						"TEXCOORD_0":25
					},
					"indices":26,
					"material":6
				},
				{
					"attributes":{
						"POSITION":27,
						"NORMAL":28,
						"TEXCOORD_0":29
					},
					"indices":30,
					"material":1
				}
			]
		},
		{
			"name":"\u5186\u67f1.010",
			"primitives":[
				{
					"attributes":{
						"POSITION":31,
						"NORMAL":32,
						"TEXCOORD_0":33
					},
					"indices":34,
					"material":7
				},
				{
					"attributes":{
						"POSITION":35,
						"NORMAL":36,
						"TEXCOORD_0":37
					},
					"indices":38,
					"material":1
				}
			]
		}
	],
	"accessors":[
		{
			"bufferView":0,
			"componentType":5126,
			"count":33,
			"max":[
				-0.29480746388435364,
				0.7713923454284668,
				0.40721839666366577
			],
			"min":[
				-1.6279784440994263,
				0.18815374374389648,
				-0.7395334839820862
			],
			"type":"VEC3"
		},
		{
			"bufferView":1,
			"componentType":5126,
			"count":33,
			"type":"VEC3"
		},
		{
			"bufferView":2,
			"componentType":5126,
			"count":33,
			"type":"VEC2"
		},
		{
			"bufferView":3,
			"componentType":5123,
			"count":120,
			"type":"SCALAR"
		},
		{
			"bufferView":4,
			"componentType":5126,
			"count":10,
			"max":[
				-0.2177470326423645,
				0.7410377264022827,
				0.19055324792861938
			],
			"min":[
				-0.9212322235107422,
				0.23286321759223938,
				-0.5228826999664307
			],
			"type":"VEC3"
		},
		{
			"bufferView":5,
			"componentType":5126,
			"count":10,
			"type":"VEC3"
		},
		{
			"bufferView":6,
			"componentType":5126,
			"count":10,
			"type":"VEC2"
		},
		{
			"bufferView":7,
			"componentType":5123,
			"count":30,
			"type":"SCALAR"
		},
		{
			"bufferView":8,
			"componentType":5126,
			"count":21,
			"max":[
				0.11161160469055176,
				0.1306379735469818,
				3.580573558807373
			],
			"min":[
				-1.3222538232803345,
				-0.6233738660812378,
				-3.8361711502075195
			],
			"type":"VEC3"
		},
		{
			"bufferView":9,
			"componentType":5126,
			"count":21,
			"type":"VEC3"
		},
		{
			"bufferView":10,
			"componentType":5126,
			"count":21,
			"type":"VEC2"
		},
		{
			"bufferView":11,
			"componentType":5123,
			"count":90,
			"type":"SCALAR"
		},
		{
			"bufferView":12,
			"componentType":5126,
			"count":20,
			"max":[
				1.8496679067611694,
				0.13238444924354553,
				1.7342290878295898
			],
			"min":[
				0.5530939102172852,
				-0.18518193066120148,
				-2.0722479820251465
			],
			"type":"VEC3"
		},
		{
			"bufferView":13,
			"componentType":5126,
			"count":20,
			"type":"VEC3"
		},
		{
			"bufferView":14,
			"componentType":5126,
			"count":20,
			"type":"VEC2"
		},
		{
			"bufferView":15,
			"componentType":5123,
			"count":84,
			"type":"SCALAR"
		},
		{
			"bufferView":16,
			"componentType":5126,
			"count":20,
			"max":[
				1.137144923210144,
				0.4980089068412781,
				0.8316517472267151
			],
			"min":[
				-0.17454169690608978,
				0.1095631942152977,
				-1.2182033061981201
			],
			"type":"VEC3"
		},
		{
			"bufferView":17,
			"componentType":5126,
			"count":20,
			"type":"VEC3"
		},
		{
			"bufferView":18,
			"componentType":5126,
			"count":20,
			"type":"VEC2"
		},
		{
			"bufferView":19,
			"componentType":5126,
			"count":20,
			"max":[
				1.5503253936767578,
				-0.06760278344154358,
				1.350257158279419
			],
			"min":[
				0.484210342168808,
				-0.4408615827560425,
				-1.7338064908981323
			],
			"type":"VEC3"
		},
		{
			"bufferView":20,
			"componentType":5126,
			"count":20,
			"type":"VEC3"
		},
		{
			"bufferView":21,
			"componentType":5126,
			"count":20,
			"type":"VEC2"
		},
		{
			"bufferView":22,
			"componentType":5123,
			"count":84,
			"type":"SCALAR"
		},
		{
			"bufferView":23,
			"componentType":5126,
			"count":77,
			"max":[
				1.725670337677002,
				-0.17935118079185486,
				0.5806950330734253
			],
			"min":[
				-1.068289041519165,
				-0.86258864402771,
				-0.9007887840270996
			],
			"type":"VEC3"
		},
		{
			"bufferView":24,
			"componentType":5126,
			"count":77,
			"type":"VEC3"
		},
		{
			"bufferView":25,
			"componentType":5126,
			"count":77,
			"type":"VEC2"
		},
		{
			"bufferView":26,
			"componentType":5123,
			"count":216,
			"type":"SCALAR"
		},
		{
			"bufferView":27,
			"componentType":5126,
			"count":12,
			"max":[
				1.725670337677002,
				-0.17935118079185486,
				0.41990891098976135
			],
			"min":[
				-0.12076139450073242,
				-0.5412037968635559,
				-0.6505715847015381
			],
			"type":"VEC3"
		},
		{
			"bufferView":28,
			"componentType":5126,
			"count":12,
			"type":"VEC3"
		},
		{
			"bufferView":29,
			"componentType":5126,
			"count":12,
			"type":"VEC2"
		},
		{
			"bufferView":30,
			"componentType":5123,
			"count":42,
			"type":"SCALAR"
		},
		{
			"bufferView":31,
			"componentType":5126,
			"count":42,
			"max":[
				0.8990597724914551,
				0.2503198981285095,
				0.4504002034664154
			],
			"min":[
				-1.1862502098083496,
				-0.19685490429401398,
				-0.7702125906944275
			],
			"type":"VEC3"
		},
		{
			"bufferView":32,
			"componentType":5126,
			"count":42,
			"type":"VEC3"
		},
		{
			"bufferView":33,
			"componentType":5126,
			"count":42,
			"type":"VEC2"
		},
		{
			"bufferView":34,
			"componentType":5123,
			"count":141,
			"type":"SCALAR"
		},
		{
			"bufferView":35,
			"componentType":5126,
			"count":13,
			"max":[
				0.8990597724914551,
				0.22108568251132965,
				0.4200311601161957
			],
			"min":[
				-0.30091142654418945,
				-0.13763417303562164,
				-0.6512662172317505
			],
			"type":"VEC3"
		},
		{
			"bufferView":36,
			"componentType":5126,
			"count":13,
			"type":"VEC3"
		},
		{
			"bufferView":37,
			"componentType":5126,
			"count":13,
			"type":"VEC2"
		},
		{
			"bufferView":38,
			"componentType":5123,
			"count":48,
			"type":"SCALAR"
		}
	],
	"bufferViews":[
		{
			"buffer":0,
			"byteLength":396,
			"byteOffset":0,
			"target":34962
		},
		{
			"buffer":0,
			"byteLength":396,
			"byteOffset":396,
			"target":34962
		},
		{
			"buffer":0,
			"byteLength":264,
			"byteOffset":792,
			"target":34962
		},
		{
			"buffer":0,
			"byteLength":240,
			"byteOffset":1056,
			"target":34963
		},
		{
			"buffer":0,
			"byteLength":120,
			"byteOffset":1296,
			"target":34962
		},
		{
			"buffer":0,
			"byteLength":120,
			"byteOffset":1416,
			"target":34962
		},
		{
			"buffer":0,
			"byteLength":80,
			"byteOffset":1536,
			"target":34962
		},
		{
			"buffer":0,
			"byteLength":60,
			"byteOffset":1616,
			"target":34963
		},
		{
			"buffer":0,
			"byteLength":252,
			"byteOffset":1676,
			"target":34962
		},
		{
			"buffer":0,
			"byteLength":252,
			"byteOffset":1928,
			"target":34962
		},
		{
			"buffer":0,
			"byteLength":168,
			"byteOffset":2180,
			"target":34962
		},
		{
			"buffer":0,
			"byteLength":180,
			"byteOffset":2348,
			"target":34963
		},
		{
			"buffer":0,
			"byteLength":240,
			"byteOffset":2528,
			"target":34962
		},
		{
			"buffer":0,
			"byteLength":240,
			"byteOffset":2768,
			"target":34962
		},
		{
			"buffer":0,
			"byteLength":160,
			"byteOffset":3008,
			"target":34962
		},
		{
			"buffer":0,
			"byteLength":168,
			"byteOffset":3168,
			"target":34963
		},
		{
			"buffer":0,
			"byteLength":240,
			"byteOffset":3336,
			"target":34962
		},
		{
			"buffer":0,
			"byteLength":240,
			"byteOffset":3576,
			"target":34962
		},
		{
			"buffer":0,
			"byteLength":160,
			"byteOffset":3816,
			"target":34962
		},
		{
			"buffer":0,
			"byteLength":240,
			"byteOffset":3976,
			"target":34962
		},
		{
			"buffer":0,
			"byteLength":240,
			"byteOffset":4216,
			"target":34962
		},
		{
			"buffer":0,
			"byteLength":160,
			"byteOffset":4456,
			"target":34962
		},
		{
			"buffer":0,
			"byteLength":168,
			"byteOffset":4616,
			"target":34963
		},
		{
			"buffer":0,
			"byteLength":924,
			"byteOffset":4784,
			"target":34962
		},
		{
			"buffer":0,
			"byteLength":924,
			"byteOffset":5708,
			"target":34962
		},
		{
			"buffer":0,
			"byteLength":616,
			"byteOffset":6632,
			"target":34962
		},
		{
			"buffer":0,
			"byteLength":432,
			"byteOffset":7248,
			"target":34963
		},
		{
			"buffer":0,
			"byteLength":144,
			"byteOffset":7680,
			"target":34962
		},
		{
			"buffer":0,
			"byteLength":144,
			"byteOffset":7824,
			"target":34962
		},
		{
			"buffer":0,
			"byteLength":96,
			"byteOffset":7968,
			"target":34962
		},
		{
			"buffer":0,
			"byteLength":84,
			"byteOffset":8064,
			"target":34963
		},
		{
			"buffer":0,
			"byteLength":504,
			"byteOffset":8148,
			"target":34962
		},
		{
			"buffer":0,
			"byteLength":504,
			"byteOffset":8652,
			"target":34962
		},
		{
			"buffer":0,
			"byteLength":336,
			"byteOffset":9156,
			"target":34962
		},
		{
			"buffer":0,
			"byteLength":282,
			"byteOffset":9492,
			"target":34963
		},
		{
			"buffer":0,
			"byteLength":156,
			"byteOffset":9776,
			"target":34962
		},
		{
			"buffer":0,
			"byteLength":156,
			"byteOffset":9932,
			"target":34962
		},
		{
			"buffer":0,
			"byteLength":104,
			"byteOffset":10088,
			"target":34962
		},
		{
			"buffer":0,
			"byteLength":96,
			"byteOffset":10192,
			"target":34963
		}
	],
	"buffers":[
		{
			"byteLength":10288,
			"uri":"SkyEnemy.bin"
		}
	]
}
