{
	"asset":{
		"generator":"Khronos glTF Blender I/O v3.6.27",
		"version":"2.0"
	},
	"scene":0,
	"scenes":[
		{
			"name":"Scene",
			"nodes":[
				0,
				1,
				2,
				3,
				4,
				5,
				6,
				7,
				8,
				9,
				10
			]
		}
	],
	"nodes":[
		{
			"mesh":0,
			"name":"Head",
			"rotation":[
				-0.500110924243927,
				0.5001108646392822,
				-0.4998891055583954,
				0.4998890459537506
			],
			"scale":[
				0.1935085952281952,
				1.2761651277542114,
				0.19350861012935638
			],
			"translation":[
				0.016253091394901276,
				-0.03563433885574341,
				0.2739025056362152
			]
		},
		{
			"mesh":1,
			"name":"RightWings",
			"rotation":[
				-0.500110924243927,
				0.5001108646392822,
				-0.4998891055583954,
				0.4998890459537506
			],
			"scale":[
				0.1935085952281952,
				1.2761651277542114,
				0.19350861012935638
			],
			"translation":[
				0.016253091394901276,
				-0.03563433885574341,
				0.2739025056362152
			]
		},
		{
			"mesh":2,
			"name":"LeftWings",
			"rotation":[
				-0.500110924243927,
				0.5001108646392822,
				-0.4998891055583954,
				0.4998890459537506
			],
			"scale":[
				0.1935085952281952,
				1.2761651277542114,
				0.19350861012935638
			],
			"translation":[
				0.016253091394901276,
				-0.03563433885574341,
				0.2739025056362152
			]
		},
		{
			"mesh":3,
			"name":"RightMiddleLegs",
			"rotation":[
				-0.500110924243927,
				0.5001108646392822,
				-0.4998891055583954,
				0.4998890459537506
			],
			"scale":[
				0.1935085952281952,
				1.2761651277542114,
				0.19350861012935638
			],
			"translation":[
				0.016253091394901276,
				-0.03563433885574341,
				0.2739025056362152
			]
		},
		{
			"mesh":4,
			"name":"LeftMiddleLegs",
			"rotation":[
				-0.500110924243927,
				0.5001108646392822,
				-0.4998891055583954,
				0.4998890459537506
			],
			"scale":[
				0.1935085952281952,
				1.2761651277542114,
				0.19350861012935638
			],
			"translation":[
				0.016253091394901276,
				-0.03563433885574341,
				0.2739025056362152
			]
		},
		{
			"mesh":5,
			"name":"LeftHindLegs",
			"rotation":[
				-0.500110924243927,
				0.5001108646392822,
				-0.4998891055583954,
				0.4998890459537506
			],
			"scale":[
				0.1935085952281952,
				1.2761651277542114,
				0.19350861012935638
			],
			"translation":[
				0.016253091394901276,
				-0.03563433885574341,
				0.2739025056362152
			]
		},
		{
			"mesh":6,
			"name":"LeftFrontLegs",
			"rotation":[
				-0.500110924243927,
				0.5001108646392822,
				-0.4998891055583954,
				0.4998890459537506
			],
			"scale":[
				0.1935085952281952,
				1.2761651277542114,
				0.19350861012935638
			],
			"translation":[
				0.016253091394901276,
				-0.03563433885574341,
				0.2739025056362152
			]
		},
		{
			"mesh":7,
			"name":"RightHindLegs",
			"rotation":[
				-0.500110924243927,
				0.5001108646392822,
				-0.4998891055583954,
				0.4998890459537506
			],
			"scale":[
				0.1935085952281952,
				1.2761651277542114,
				0.19350861012935638
			],
			"translation":[
				0.016253091394901276,
				-0.03563433885574341,
				0.2739025056362152
			]
		},
		{
			"mesh":8,
			"name":"RightFrontLegs",
			"rotation":[
				-0.500110924243927,
				0.5001108646392822,
				-0.4998891055583954,
				0.4998890459537506
			],
			"scale":[
				0.1935085952281952,
				1.2761651277542114,
				0.19350861012935638
			],
			"translation":[
				0.016253091394901276,
				-0.03563433885574341,
				0.2739025056362152
			]
		},
		{
			"mesh":9,
			"name":"Abdomen",
			"rotation":[
				-0.500110924243927,
				0.5001108646392822,
				-0.4998891055583954,
				0.4998890459537506
			],
			"scale":[
				0.1935085952281952,
				1.2761651277542114,
				0.19350861012935638
			],
			"translation":[
				0.016253091394901276,
				-0.03563433885574341,
				0.2739025056362152
			]
		},
		{
			"mesh":10,
			"name":"Thorax",
			"rotation":[
				-0.500110924243927,
				0.5001108646392822,
				-0.4998891055583954,
				0.4998890459537506
			],
			"scale":[
				0.1935085952281952,
				1.2761651277542114,
				0.19350861012935638
			],
			"translation":[
				0.016253091394901276,
				-0.03563433885574341,
				0.2739025056362152
			]
		}
	],
	"materials":[
		{
			"doubleSided":true,
			"emissiveFactor":[
				0.10000000149011612,
				0.09600000083446503,
				0.08999999612569809
			],
			"name":"bodyColor",
			"pbrMetallicRoughness":{
				"baseColorFactor":[
					0.09863034635782242,
					0.005966296419501305,
					0.3235519826412201,
					1
				],
				"metallicFactor":0
			}
		},
		{
			"doubleSided":true,
			"emissiveFactor":[
				0.10000000149011612,
				0.09599999338388443,
				0.08999999612569809
			],
			"name":"BottomColor",
			"pbrMetallicRoughness":{
				"baseColorFactor":[
					0.7156938314437866,
					0.006995221599936485,
					0.04518623277544975,
					1
				],
				"metallicFactor":0
			}
		}
	],
	"meshes":[
		{
			"name":"\u5186\u67f1",
			"primitives":[
				{
					"attributes":{
						"POSITION":0,
						"NORMAL":1,
						"TEXCOORD_0":2
					},
					"indices":3,
					"material":0
				},
				{
					"attributes":{
						"POSITION":4,
						"NORMAL":5,
						"TEXCOORD_0":6
					},
					"indices":7,
					"material":1
				}
			]
		},
		{
			"name":"\u5186\u67f1.001",
			"primitives":[
				{
					"attributes":{
						"POSITION":8,
						"NORMAL":9,
						"TEXCOORD_0":10
					},
					"indices":11,
					"material":0
				}
			]
		},
		{
			"name":"\u5186\u67f1.002",
			"primitives":[
				{
					"attributes":{
						"POSITION":12,
						"NORMAL":13,
						"TEXCOORD_0":14
					},
					"indices":15,
					"material":0
				}
			]
		},
		{
			"name":"\u5186\u67f1.003",
			"primitives":[
				{
					"attributes":{
						"POSITION":16,
						"NORMAL":17,
						"TEXCOORD_0":18
					},
					"indices":19,
					"material":0
				}
			]
		},
		{
			"name":"\u5186\u67f1.004",
			"primitives":[
				{
					"attributes":{
						"POSITION":20,
						"NORMAL":21,
						"TEXCOORD_0":22
					},
					"indices":23,
					"material":0
				}
			]
		},
		{
			"name":"\u5186\u67f1.005",
			"primitives":[
				{
					"attributes":{
						"POSITION":24,
						"NORMAL":25,
						"TEXCOORD_0":26
					},
					"indices":23,
					"material":0
				}
			]
		},
		{
			"name":"\u5186\u67f1.006",
			"primitives":[
				{
					"attributes":{
						"POSITION":27,
						"NORMAL":28,
						"TEXCOORD_0":29
					},
					"indices":30,
					"material":0
				}
			]
		},
		{
			"name":"\u5186\u67f1.007",
			"primitives":[
				{
					"attributes":{
						"POSITION":31,
						"NORMAL":32,
						"TEXCOORD_0":33
					},
					"indices":19,
					"material":0
				}
			]
		},
		{
			"name":"\u5186\u67f1.008",
			"primitives":[
				{
					"attributes":{
						"POSITION":34,
						"NORMAL":35,
						"TEXCOORD_0":36
					},
					"indices":37,
					"material":0
				}
			]
		},
		{
			"name":"\u5186\u67f1.009",
			"primitives":[
				{
					"attributes":{
						"POSITION":38,
						"NORMAL":39,
						"TEXCOORD_0":40
					},
					"indices":41,
					"material":0
				},
				{
					"attributes":{
						"POSITION":42,
						"NORMAL":43,
						"TEXCOORD_0":44
					},
					"indices":45,
					"material":1
				}
			]
		},
		{
			"name":"\u5186\u67f1.010",
			"primitives":[
				{
					"attributes":{
						"POSITION":46,
						"NORMAL":47,
						"TEXCOORD_0":48
					},
					"indices":49,
					"material":0
				},
				{
					"attributes":{
						"POSITION":50,
						"NORMAL":51,
						"TEXCOORD_0":52
					},
					"indices":53,
					"material":1
				}
			]
		}
	],
	"accessors":[
		{
			"bufferView":0,
			"componentType":5126,
			"count":35,
			"max":[
				-0.29480746388435364,
				0.7713923454284668,
				0.40721839666366577
			],
			"min":[
				-1.6279784440994263,
				0.18815374374389648,
				-0.7395334839820862
			],
			"type":"VEC3"
		},
		{
			"bufferView":1,
			"componentType":5126,
			"count":35,
			"type":"VEC3"
		},
		{
			"bufferView":2,
			"componentType":5126,
			"count":35,
			"type":"VEC2"
		},
		{
			"bufferView":3,
			"componentType":5123,
			"count":120,
			"type":"SCALAR"
		},
		{
			"bufferView":4,
			"componentType":5126,
			"count":10,
			"max":[
				-0.2177470326423645,
				0.7410377264022827,
				0.19055324792861938
			],
			"min":[
				-0.9212322235107422,
				0.23286321759223938,
				-0.5228826999664307
			],
			"type":"VEC3"
		},
		{
			"bufferView":5,
			"componentType":5126,
			"count":10,
			"type":"VEC3"
		},
		{
			"bufferView":6,
			"componentType":5126,
			"count":10,
			"type":"VEC2"
		},
		{
			"bufferView":7,
			"componentType":5123,
			"count":30,
			"type":"SCALAR"
		},
		{
			"bufferView":8,
			"componentType":5126,
			"count":11,
			"max":[
				0.10107085108757019,
				0.1306379735469818,
				3.580573558807373
			],
			"min":[
				-1.2128044366836548,
				-0.6233738660812378,
				0.1825890839099884
			],
			"type":"VEC3"
		},
		{
			"bufferView":9,
			"componentType":5126,
			"count":11,
			"type":"VEC3"
		},
		{
			"bufferView":10,
			"componentType":5126,
			"count":11,
			"type":"VEC2"
		},
		{
			"bufferView":11,
			"componentType":5123,
			"count":45,
			"type":"SCALAR"
		},
		{
			"bufferView":12,
			"componentType":5126,
			"count":10,
			"max":[
				0.11161160469055176,
				0.11588180065155029,
				-0.4221513271331787
			],
			"min":[
				-1.322253942489624,
				-0.5727643370628357,
				-3.8361713886260986
			],
			"type":"VEC3"
		},
		{
			"bufferView":13,
			"componentType":5126,
			"count":10,
			"type":"VEC3"
		},
		{
			"bufferView":14,
			"componentType":5126,
			"count":10,
			"type":"VEC2"
		},
		{
			"bufferView":15,
			"componentType":5123,
			"count":45,
			"type":"SCALAR"
		},
		{
			"bufferView":16,
			"componentType":5126,
			"count":12,
			"max":[
				1.7390176057815552,
				0.13238444924354553,
				1.7342292070388794
			],
			"min":[
				0.5620014071464539,
				-0.17927245795726776,
				0.3263089656829834
			],
			"type":"VEC3"
		},
		{
			"bufferView":17,
			"componentType":5126,
			"count":12,
			"type":"VEC3"
		},
		{
			"bufferView":18,
			"componentType":5126,
			"count":12,
			"type":"VEC2"
		},
		{
			"bufferView":19,
			"componentType":5123,
			"count":42,
			"type":"SCALAR"
		},
		{
			"bufferView":20,
			"componentType":5126,
			"count":12,
			"max":[
				1.8496679067611694,
				0.13055767118930817,
				-0.7225680351257324
			],
			"min":[
				0.5530939102172852,
				-0.18518193066120148,
				-2.0722479820251465
			],
			"type":"VEC3"
		},
		{
			"bufferView":21,
			"componentType":5126,
			"count":12,
			"type":"VEC3"
		},
		{
			"bufferView":22,
			"componentType":5126,
			"count":12,
			"type":"VEC2"
		},
		{
			"bufferView":23,
			"componentType":5123,
			"count":42,
			"type":"SCALAR"
		},
		{
			"bufferView":24,
			"componentType":5126,
			"count":12,
			"max":[
				1.5503255128860474,
				-0.07518698275089264,
				-0.9392292499542236
			],
			"min":[
				0.5006022453308105,
				-0.44086164236068726,
				-1.7338066101074219
			],
			"type":"VEC3"
		},
		{
			"bufferView":25,
			"componentType":5126,
			"count":12,
			"type":"VEC3"
		},
		{
			"bufferView":26,
			"componentType":5126,
			"count":12,
			"type":"VEC2"
		},
		{
			"bufferView":27,
			"componentType":5126,
			"count":12,
			"max":[
				1.0211032629013062,
				0.4843806028366089,
				-0.8434665203094482
			],
			"min":[
				-0.17454169690608978,
				0.1095631942152977,
				-1.2182033061981201
			],
			"type":"VEC3"
		},
		{
			"bufferView":28,
			"componentType":5126,
			"count":12,
			"type":"VEC3"
		},
		{
			"bufferView":29,
			"componentType":5126,
			"count":12,
			"type":"VEC2"
		},
		{
			"bufferView":30,
			"componentType":5123,
			"count":42,
			"type":"SCALAR"
		},
		{
			"bufferView":31,
			"componentType":5126,
			"count":12,
			"max":[
				1.4284307956695557,
				-0.06760278344154358,
				1.350257158279419
			],
			"min":[
				0.484210342168808,
				-0.4302642345428467,
				0.518829882144928
			],
			"type":"VEC3"
		},
		{
			"bufferView":32,
			"componentType":5126,
			"count":12,
			"type":"VEC3"
		},
		{
			"bufferView":33,
			"componentType":5126,
			"count":12,
			"type":"VEC2"
		},
		{
			"bufferView":34,
			"componentType":5126,
			"count":12,
			"max":[
				1.1371450424194336,
				0.4980089068412781,
				0.8316518068313599
			],
			"min":[
				-0.04774639010429382,
				0.13445919752120972,
				0.38388487696647644
			],
			"type":"VEC3"
		},
		{
			"bufferView":35,
			"componentType":5126,
			"count":12,
			"type":"VEC3"
		},
		{
			"bufferView":36,
			"componentType":5126,
			"count":12,
			"type":"VEC2"
		},
		{
			"bufferView":37,
			"componentType":5123,
			"count":42,
			"type":"SCALAR"
		},
		{
			"bufferView":38,
			"componentType":5126,
			"count":88,
			"max":[
				1.725670337677002,
				-0.17935118079185486,
				0.5806950330734253
			],
			"min":[
				-1.068289041519165,
				-0.86258864402771,
				-0.9007887840270996
			],
			"type":"VEC3"
		},
		{
			"bufferView":39,
			"componentType":5126,
			"count":88,
			"type":"VEC3"
		},
		{
			"bufferView":40,
			"componentType":5126,
			"count":88,
			"type":"VEC2"
		},
		{
			"bufferView":41,
			"componentType":5123,
			"count":216,
			"type":"SCALAR"
		},
		{
			"bufferView":42,
			"componentType":5126,
			"count":12,
			"max":[
				1.725670337677002,
				-0.17935118079185486,
				0.41990891098976135
			],
			"min":[
				-0.12076139450073242,
				-0.5412037968635559,
				-0.6505715847015381
			],
			"type":"VEC3"
		},
		{
			"bufferView":43,
			"componentType":5126,
			"count":12,
			"type":"VEC3"
		},
		{
			"bufferView":44,
			"componentType":5126,
			"count":12,
			"type":"VEC2"
		},
		{
			"bufferView":45,
			"componentType":5123,
			"count":42,
			"type":"SCALAR"
		},
		{
			"bufferView":46,
			"componentType":5126,
			"count":44,
			"max":[
				0.8990597724914551,
				0.2503198981285095,
				0.4504002034664154
			],
			"min":[
				-1.1862502098083496,
				-0.19685490429401398,
				-0.7702125906944275
			],
			"type":"VEC3"
		},
		{
			"bufferView":47,
			"componentType":5126,
			"count":44,
			"type":"VEC3"
		},
		{
			"bufferView":48,
			"componentType":5126,
			"count":44,
			"type":"VEC2"
		},
		{
			"bufferView":49,
			"componentType":5123,
			"count":141,
			"type":"SCALAR"
		},
		{
			"bufferView":50,
			"componentType":5126,
			"count":13,
			"max":[
				0.8990597724914551,
				0.22108568251132965,
				0.4200311601161957
			],
			"min":[
				-0.30091142654418945,
				-0.13763417303562164,
				-0.6512662172317505
			],
			"type":"VEC3"
		},
		{
			"bufferView":51,
			"componentType":5126,
			"count":13,
			"type":"VEC3"
		},
		{
			"bufferView":52,
			"componentType":5126,
			"count":13,
			"type":"VEC2"
		},
		{
			"bufferView":53,
			"componentType":5123,
			"count":48,
			"type":"SCALAR"
		}
	],
	"bufferViews":[
		{
			"buffer":0,
			"byteLength":420,
			"byteOffset":0,
			"target":34962
		},
		{
			"buffer":0,
			"byteLength":420,
			"byteOffset":420,
			"target":34962
		},
		{
			"buffer":0,
			"byteLength":280,
			"byteOffset":840,
			"target":34962
		},
		{
			"buffer":0,
			"byteLength":240,
			"byteOffset":1120,
			"target":34963
		},
		{
			"buffer":0,
			"byteLength":120,
			"byteOffset":1360,
			"target":34962
		},
		{
			"buffer":0,
			"byteLength":120,
			"byteOffset":1480,
			"target":34962
		},
		{
			"buffer":0,
			"byteLength":80,
			"byteOffset":1600,
			"target":34962
		},
		{
			"buffer":0,
			"byteLength":60,
			"byteOffset":1680,
			"target":34963
		},
		{
			"buffer":0,
			"byteLength":132,
			"byteOffset":1740,
			"target":34962
		},
		{
			"buffer":0,
			"byteLength":132,
			"byteOffset":1872,
			"target":34962
		},
		{
			"buffer":0,
			"byteLength":88,
			"byteOffset":2004,
			"target":34962
		},
		{
			"buffer":0,
			"byteLength":90,
			"byteOffset":2092,
			"target":34963
		},
		{
			"buffer":0,
			"byteLength":120,
			"byteOffset":2184,
			"target":34962
		},
		{
			"buffer":0,
			"byteLength":120,
			"byteOffset":2304,
			"target":34962
		},
		{
			"buffer":0,
			"byteLength":80,
			"byteOffset":2424,
			"target":34962
		},
		{
			"buffer":0,
			"byteLength":90,
			"byteOffset":2504,
			"target":34963
		},
		{
			"buffer":0,
			"byteLength":144,
			"byteOffset":2596,
			"target":34962
		},
		{
			"buffer":0,
			"byteLength":144,
			"byteOffset":2740,
			"target":34962
		},
		{
			"buffer":0,
			"byteLength":96,
			"byteOffset":2884,
			"target":34962
		},
		{
			"buffer":0,
			"byteLength":84,
			"byteOffset":2980,
			"target":34963
		},
		{
			"buffer":0,
			"byteLength":144,
			"byteOffset":3064,
			"target":34962
		},
		{
			"buffer":0,
			"byteLength":144,
			"byteOffset":3208,
			"target":34962
		},
		{
			"buffer":0,
			"byteLength":96,
			"byteOffset":3352,
			"target":34962
		},
		{
			"buffer":0,
			"byteLength":84,
			"byteOffset":3448,
			"target":34963
		},
		{
			"buffer":0,
			"byteLength":144,
			"byteOffset":3532,
			"target":34962
		},
		{
			"buffer":0,
			"byteLength":144,
			"byteOffset":3676,
			"target":34962
		},
		{
			"buffer":0,
			"byteLength":96,
			"byteOffset":3820,
			"target":34962
		},
		{
			"buffer":0,
			"byteLength":144,
			"byteOffset":3916,
			"target":34962
		},
		{
			"buffer":0,
			"byteLength":144,
			"byteOffset":4060,
			"target":34962
		},
		{
			"buffer":0,
			"byteLength":96,
			"byteOffset":4204,
			"target":34962
		},
		{
			"buffer":0,
			"byteLength":84,
			"byteOffset":4300,
			"target":34963
		},
		{
			"buffer":0,
			"byteLength":144,
			"byteOffset":4384,
			"target":34962
		},
		{
			"buffer":0,
			"byteLength":144,
			"byteOffset":4528,
			"target":34962
		},
		{
			"buffer":0,
			"byteLength":96,
			"byteOffset":4672,
			"target":34962
		},
		{
			"buffer":0,
			"byteLength":144,
			"byteOffset":4768,
			"target":34962
		},
		{
			"buffer":0,
			"byteLength":144,
			"byteOffset":4912,
			"target":34962
		},
		{
			"buffer":0,
			"byteLength":96,
			"byteOffset":5056,
			"target":34962
		},
		{
			"buffer":0,
			"byteLength":84,
			"byteOffset":5152,
			"target":34963
		},
		{
			"buffer":0,
			"byteLength":1056,
			"byteOffset":5236,
			"target":34962
		},
		{
			"buffer":0,
			"byteLength":1056,
			"byteOffset":6292,
			"target":34962
		},
		{
			"buffer":0,
			"byteLength":704,
			"byteOffset":7348,
			"target":34962
		},
		{
			"buffer":0,
			"byteLength":432,
			"byteOffset":8052,
			"target":34963
		},
		{
			"buffer":0,
			"byteLength":144,
			"byteOffset":8484,
			"target":34962
		},
		{
			"buffer":0,
			"byteLength":144,
			"byteOffset":8628,
			"target":34962
		},
		{
			"buffer":0,
			"byteLength":96,
			"byteOffset":8772,
			"target":34962
		},
		{
			"buffer":0,
			"byteLength":84,
			"byteOffset":8868,
			"target":34963
		},
		{
			"buffer":0,
			"byteLength":528,
			"byteOffset":8952,
			"target":34962
		},
		{
			"buffer":0,
			"byteLength":528,
			"byteOffset":9480,
			"target":34962
		},
		{
			"buffer":0,
			"byteLength":352,
			"byteOffset":10008,
			"target":34962
		},
		{
			"buffer":0,
			"byteLength":282,
			"byteOffset":10360,
			"target":34963
		},
		{
			"buffer":0,
			"byteLength":156,
			"byteOffset":10644,
			"target":34962
		},
		{
			"buffer":0,
			"byteLength":156,
			"byteOffset":10800,
			"target":34962
		},
		{
			"buffer":0,
			"byteLength":104,
			"byteOffset":10956,
			"target":34962
		},
		{
			"buffer":0,
			"byteLength":96,
			"byteOffset":11060,
			"target":34963
		}
	],
	"buffers":[
		{
			"byteLength":11156,
			"uri":"SkyEnemy.bin"
		}
	]
}
