{
	"asset":{
		"generator":"Khronos glTF Blender I/O v3.6.27",
		"version":"2.0"
	},
	"scene":0,
	"scenes":[
		{
			"name":"Scene",
			"nodes":[
				0
			]
		}
	],
	"nodes":[
		{
			"mesh":0,
			"name":"Body",
			"rotation":[
				-0.500110924243927,
				0.5001108646392822,
				-0.4998891055583954,
				0.4998890459537506
			],
			"scale":[
				0.1935085952281952,
				1.2761651277542114,
				0.19350861012935638
			],
			"translation":[
				0.016253091394901276,
				-0.03563433885574341,
				0.2739025056362152
			]
		}
	],
	"materials":[
		{
			"doubleSided":true,
			"emissiveFactor":[
				0.21651901304721832,
				0.005832066293805838,
				0.006132540758699179
			],
			"name":"BodyColor",
			"pbrMetallicRoughness":{
				"baseColorFactor":[
					0.18613514304161072,
					0.006840584799647331,
					0.8000000715255737,
					1
				],
				"metallicFactor":0,
				"roughnessFactor":0.60550457239151
			}
		},
		{
			"doubleSided":true,
			"emissiveFactor":[
				0.18781623244285583,
				0.12044566869735718,
				0.015080074779689312
			],
			"name":"BottomColor",
			"pbrMetallicRoughness":{
				"baseColorFactor":[
					0.19715002179145813,
					0.8000000715255737,
					0.2968429625034332,
					1
				],
				"metallicFactor":0
			}
		}
	],
	"meshes":[
		{
			"name":"\u5186\u67f1",
			"primitives":[
				{
					"attributes":{
						"POSITION":0,
						"NORMAL":1,
						"TEXCOORD_0":2
					},
					"indices":3,
					"material":0
				},
				{
					"attributes":{
						"POSITION":4,
						"NORMAL":5,
						"TEXCOORD_0":6
					},
					"indices":7,
					"material":1
				}
			]
		}
	],
	"accessors":[
		{
			"bufferView":0,
			"componentType":5126,
			"count":214,
			"max":[
				1.690631628036499,
				1.2568446397781372,
				2.1779537200927734
			],
			"min":[
				-1.7367780208587646,
				-0.4349692761898041,
				-2.1353206634521484
			],
			"type":"VEC3"
		},
		{
			"bufferView":1,
			"componentType":5126,
			"count":214,
			"type":"VEC3"
		},
		{
			"bufferView":2,
			"componentType":5126,
			"count":214,
			"type":"VEC2"
		},
		{
			"bufferView":3,
			"componentType":5123,
			"count":678,
			"type":"SCALAR"
		},
		{
			"bufferView":4,
			"componentType":5126,
			"count":29,
			"max":[
				1,
				1.2258667945861816,
				0.5379414558410645
			],
			"min":[
				-0.5198751091957092,
				-0.07141214609146118,
				-0.7629599571228027
			],
			"type":"VEC3"
		},
		{
			"bufferView":5,
			"componentType":5126,
			"count":29,
			"type":"VEC3"
		},
		{
			"bufferView":6,
			"componentType":5126,
			"count":29,
			"type":"VEC2"
		},
		{
			"bufferView":7,
			"componentType":5123,
			"count":120,
			"type":"SCALAR"
		}
	],
	"bufferViews":[
		{
			"buffer":0,
			"byteLength":2568,
			"byteOffset":0,
			"target":34962
		},
		{
			"buffer":0,
			"byteLength":2568,
			"byteOffset":2568,
			"target":34962
		},
		{
			"buffer":0,
			"byteLength":1712,
			"byteOffset":5136,
			"target":34962
		},
		{
			"buffer":0,
			"byteLength":1356,
			"byteOffset":6848,
			"target":34963
		},
		{
			"buffer":0,
			"byteLength":348,
			"byteOffset":8204,
			"target":34962
		},
		{
			"buffer":0,
			"byteLength":348,
			"byteOffset":8552,
			"target":34962
		},
		{
			"buffer":0,
			"byteLength":232,
			"byteOffset":8900,
			"target":34962
		},
		{
			"buffer":0,
			"byteLength":240,
			"byteOffset":9132,
			"target":34963
		}
	],
	"buffers":[
		{
			"byteLength":9372,
			"uri":"SkyEnemy.bin"
		}
	]
}
