{
	"asset":{
		"generator":"Khronos glTF Blender I/O v3.6.27",
		"version":"2.0"
	},
	"scene":0,
	"scenes":[
		{
			"name":"Scene",
			"nodes":[
				0,
				1,
				2,
				3,
				4,
				5,
				6,
				7
			]
		}
	],
	"nodes":[
		{
			"mesh":0,
			"name":"Body",
			"rotation":[
				-0.5001109838485718,
				0.500110924243927,
				-0.4998891353607178,
				0.4998891353607178
			],
			"scale":[
				0.1935085952281952,
				1.2761651277542114,
				0.19350862503051758
			],
			"translation":[
				0.016253091394901276,
				-0.017286669462919235,
				0.3377966582775116
			]
		},
		{
			"mesh":1,
			"name":"Caudal",
			"rotation":[
				-0.5001109838485718,
				0.500110924243927,
				-0.4998891353607178,
				0.4998891353607178
			],
			"scale":[
				0.1935085952281952,
				1.2761651277542114,
				0.19350862503051758
			],
			"translation":[
				0.016253091394901276,
				-0.017286669462919235,
				0.3377966582775116
			]
		},
		{
			"mesh":2,
			"name":"Dorsal",
			"rotation":[
				-0.5001109838485718,
				0.500110924243927,
				-0.4998891353607178,
				0.4998891353607178
			],
			"scale":[
				0.1935085952281952,
				1.2761651277542114,
				0.19350862503051758
			],
			"translation":[
				0.016253091394901276,
				-0.017286669462919235,
				0.3377966582775116
			]
		},
		{
			"mesh":3,
			"name":"Pelvic_L",
			"rotation":[
				-0.5001109838485718,
				0.500110924243927,
				-0.4998891353607178,
				0.4998891353607178
			],
			"scale":[
				0.1935085952281952,
				1.2761651277542114,
				0.19350862503051758
			],
			"translation":[
				0.016253091394901276,
				-0.017286669462919235,
				0.3377966582775116
			]
		},
		{
			"mesh":4,
			"name":"Pelvic_R",
			"rotation":[
				-0.5001109838485718,
				0.500110924243927,
				-0.4998891353607178,
				0.4998891353607178
			],
			"scale":[
				0.1935085952281952,
				1.2761651277542114,
				0.19350862503051758
			],
			"translation":[
				0.016253091394901276,
				-0.017286669462919235,
				0.3377966582775116
			]
		},
		{
			"mesh":5,
			"name":"AnalFin",
			"rotation":[
				-0.5001109838485718,
				0.500110924243927,
				-0.4998891353607178,
				0.4998891353607178
			],
			"scale":[
				0.1935085952281952,
				1.2761651277542114,
				0.19350862503051758
			],
			"translation":[
				0.016253091394901276,
				-0.017286669462919235,
				0.3377966582775116
			]
		},
		{
			"mesh":6,
			"name":"Pectoral_L",
			"rotation":[
				-0.5001109838485718,
				0.500110924243927,
				-0.4998891353607178,
				0.4998891353607178
			],
			"scale":[
				0.1935085952281952,
				1.2761651277542114,
				0.19350862503051758
			],
			"translation":[
				-0.06767593324184418,
				0.2402065247297287,
				0.27770182490348816
			]
		},
		{
			"mesh":7,
			"name":"Pectoral_R",
			"rotation":[
				-0.5001109838485718,
				0.500110924243927,
				-0.4998891353607178,
				0.4998891353607178
			],
			"scale":[
				0.1935085952281952,
				1.2761651277542114,
				0.19350862503051758
			],
			"translation":[
				0.17160490155220032,
				0.20243579149246216,
				0.27891531586647034
			]
		}
	],
	"materials":[
		{
			"doubleSided":true,
			"name":"BodyColor",
			"pbrMetallicRoughness":{
				"baseColorFactor":[
					0.06124597787857056,
					0.05951118469238281,
					0.06480326503515244,
					1
				],
				"metallicFactor":0,
				"roughnessFactor":0.60550457239151
			}
		},
		{
			"doubleSided":true,
			"name":"BottomColor",
			"pbrMetallicRoughness":{
				"baseColorFactor":[
					0.5149170756340027,
					0.45641058683395386,
					0.4125427305698395,
					1
				],
				"metallicFactor":0
			}
		},
		{
			"doubleSided":true,
			"name":"CaudalColor",
			"pbrMetallicRoughness":{
				"baseColorFactor":[
					0.7156932950019836,
					0.5711245536804199,
					0.09305910766124725,
					1
				],
				"metallicFactor":0,
				"roughnessFactor":0.5
			}
		},
		{
			"doubleSided":true,
			"name":"DorsalColor",
			"pbrMetallicRoughness":{
				"baseColorFactor":[
					0.5394791960716248,
					0.4396567642688751,
					0.25818300247192383,
					1
				],
				"metallicFactor":0,
				"roughnessFactor":0.5
			}
		},
		{
			"doubleSided":true,
			"name":"PelvicColor.001",
			"pbrMetallicRoughness":{
				"baseColorFactor":[
					0.5647110939025879,
					0.5457242727279663,
					0.5271151661872864,
					1
				],
				"metallicFactor":0,
				"roughnessFactor":0.5
			}
		},
		{
			"doubleSided":true,
			"name":"PelvicColor",
			"pbrMetallicRoughness":{
				"baseColorFactor":[
					0.5647110939025879,
					0.5457242727279663,
					0.5271151661872864,
					1
				],
				"metallicFactor":0,
				"roughnessFactor":0.5
			}
		},
		{
			"doubleSided":true,
			"name":"AnalFinColor",
			"pbrMetallicRoughness":{
				"baseColorFactor":[
					0.5394791960716248,
					0.4396567642688751,
					0.25818300247192383,
					1
				],
				"metallicFactor":0,
				"roughnessFactor":0.5
			}
		},
		{
			"doubleSided":true,
			"name":"RectoralColor",
			"pbrMetallicRoughness":{
				"baseColorFactor":[
					0.8148457407951355,
					0.7835371494293213,
					0.7529423832893372,
					1
				],
				"metallicFactor":0,
				"roughnessFactor":0.5
			}
		},
		{
			"doubleSided":true,
			"name":"RectoralColor.001",
			"pbrMetallicRoughness":{
				"baseColorFactor":[
					0.8148457407951355,
					0.7835371494293213,
					0.7529423832893372,
					1
				],
				"metallicFactor":0,
				"roughnessFactor":0.5
			}
		}
	],
	"meshes":[
		{
			"name":"\u5186\u67f1",
			"primitives":[
				{
					"attributes":{
						"POSITION":0,
						"NORMAL":1,
						"TEXCOORD_0":2
					},
					"indices":3,
					"material":0
				},
				{
					"attributes":{
						"POSITION":4,
						"NORMAL":5,
						"TEXCOORD_0":6
					},
					"indices":7,
					"material":1
				}
			]
		},
		{
			"name":"\u5186\u67f1.001",
			"primitives":[
				{
					"attributes":{
						"POSITION":8,
						"NORMAL":9,
						"TEXCOORD_0":10
					},
					"indices":11,
					"material":2
				}
			]
		},
		{
			"name":"\u5186\u67f1.002",
			"primitives":[
				{
					"attributes":{
						"POSITION":12,
						"NORMAL":13,
						"TEXCOORD_0":14
					},
					"indices":15,
					"material":3
				}
			]
		},
		{
			"name":"\u5186\u67f1.003",
			"primitives":[
				{
					"attributes":{
						"POSITION":16,
						"NORMAL":17,
						"TEXCOORD_0":18
					},
					"indices":19,
					"material":4
				}
			]
		},
		{
			"name":"\u5186\u67f1.004",
			"primitives":[
				{
					"attributes":{
						"POSITION":20,
						"NORMAL":21,
						"TEXCOORD_0":22
					},
					"indices":23,
					"material":5
				}
			]
		},
		{
			"name":"\u5186\u67f1.005",
			"primitives":[
				{
					"attributes":{
						"POSITION":24,
						"NORMAL":25,
						"TEXCOORD_0":26
					},
					"indices":27,
					"material":6
				}
			]
		},
		{
			"name":"\u5186\u67f1.006",
			"primitives":[
				{
					"attributes":{
						"POSITION":28,
						"NORMAL":29,
						"TEXCOORD_0":30
					},
					"indices":31,
					"material":7
				}
			]
		},
		{
			"name":"\u5186\u67f1.007",
			"primitives":[
				{
					"attributes":{
						"POSITION":32,
						"NORMAL":33,
						"TEXCOORD_0":34
					},
					"indices":23,
					"material":8
				}
			]
		}
	],
	"accessors":[
		{
			"bufferView":0,
			"componentType":5126,
			"count":134,
			"max":[
				1.296483039855957,
				1.2171612977981567,
				0.7622396945953369
			],
			"min":[
				-2.519184112548828,
				-0.3514833450317383,
				-0.67502760887146
			],
			"type":"VEC3"
		},
		{
			"bufferView":1,
			"componentType":5126,
			"count":134,
			"type":"VEC3"
		},
		{
			"bufferView":2,
			"componentType":5126,
			"count":134,
			"type":"VEC2"
		},
		{
			"bufferView":3,
			"componentType":5123,
			"count":426,
			"type":"SCALAR"
		},
		{
			"bufferView":4,
			"componentType":5126,
			"count":47,
			"max":[
				1.560086727142334,
				1.1769572496414185,
				0.5879550576210022
			],
			"min":[
				-0.2760120630264282,
				-0.3514833450317383,
				-0.3888581395149231
			],
			"type":"VEC3"
		},
		{
			"bufferView":5,
			"componentType":5126,
			"count":47,
			"type":"VEC3"
		},
		{
			"bufferView":6,
			"componentType":5126,
			"count":47,
			"type":"VEC2"
		},
		{
			"bufferView":7,
			"componentType":5123,
			"count":174,
			"type":"SCALAR"
		},
		{
			"bufferView":8,
			"componentType":5126,
			"count":30,
			"max":[
				-0.06371955573558807,
				-0.27039122581481934,
				0.12457927316427231
			],
			"min":[
				-2.8002099990844727,
				-0.6491291522979736,
				-0.17408736050128937
			],
			"type":"VEC3"
		},
		{
			"bufferView":9,
			"componentType":5126,
			"count":30,
			"type":"VEC3"
		},
		{
			"bufferView":10,
			"componentType":5126,
			"count":30,
			"type":"VEC2"
		},
		{
			"bufferView":11,
			"componentType":5123,
			"count":138,
			"type":"SCALAR"
		},
		{
			"bufferView":12,
			"componentType":5126,
			"count":28,
			"max":[
				-1.7283713817596436,
				0.4216729998588562,
				0.13363529741764069
			],
			"min":[
				-3.5096399784088135,
				-0.25233450531959534,
				-0.22300095856189728
			],
			"type":"VEC3"
		},
		{
			"bufferView":13,
			"componentType":5126,
			"count":28,
			"type":"VEC3"
		},
		{
			"bufferView":14,
			"componentType":5126,
			"count":28,
			"type":"VEC2"
		},
		{
			"bufferView":15,
			"componentType":5123,
			"count":132,
			"type":"SCALAR"
		},
		{
			"bufferView":16,
			"componentType":5126,
			"count":14,
			"max":[
				2.1499412059783936,
				0.5461441278457642,
				-0.46313050389289856
			],
			"min":[
				0.6859406232833862,
				0.2642383277416229,
				-0.8333809971809387
			],
			"type":"VEC3"
		},
		{
			"bufferView":17,
			"componentType":5126,
			"count":14,
			"type":"VEC3"
		},
		{
			"bufferView":18,
			"componentType":5126,
			"count":14,
			"type":"VEC2"
		},
		{
			"bufferView":19,
			"componentType":5123,
			"count":63,
			"type":"SCALAR"
		},
		{
			"bufferView":20,
			"componentType":5126,
			"count":14,
			"max":[
				2.30233097076416,
				0.5488641262054443,
				0.8199965357780457
			],
			"min":[
				0.718746542930603,
				0.2652624249458313,
				0.5203793048858643
			],
			"type":"VEC3"
		},
		{
			"bufferView":21,
			"componentType":5126,
			"count":14,
			"type":"VEC3"
		},
		{
			"bufferView":22,
			"componentType":5126,
			"count":14,
			"type":"VEC2"
		},
		{
			"bufferView":23,
			"componentType":5123,
			"count":57,
			"type":"SCALAR"
		},
		{
			"bufferView":24,
			"componentType":5126,
			"count":21,
			"max":[
				2.3408279418945312,
				0.23366700112819672,
				0.003517725970596075
			],
			"min":[
				0.007083974778652191,
				-0.4130416512489319,
				-0.15327532589435577
			],
			"type":"VEC3"
		},
		{
			"bufferView":25,
			"componentType":5126,
			"count":21,
			"type":"VEC3"
		},
		{
			"bufferView":26,
			"componentType":5126,
			"count":21,
			"type":"VEC2"
		},
		{
			"bufferView":27,
			"componentType":5123,
			"count":114,
			"type":"SCALAR"
		},
		{
			"bufferView":28,
			"componentType":5126,
			"count":14,
			"max":[
				1.7732264995574951,
				0.7844681143760681,
				-0.2720896601676941
			],
			"min":[
				0.5570822358131409,
				0.4496321678161621,
				-0.9341628551483154
			],
			"type":"VEC3"
		},
		{
			"bufferView":29,
			"componentType":5126,
			"count":14,
			"type":"VEC3"
		},
		{
			"bufferView":30,
			"componentType":5126,
			"count":14,
			"type":"VEC2"
		},
		{
			"bufferView":31,
			"componentType":5123,
			"count":63,
			"type":"SCALAR"
		},
		{
			"bufferView":32,
			"componentType":5126,
			"count":14,
			"max":[
				1.5058526992797852,
				0.7942072153091431,
				0.5294116139411926
			],
			"min":[
				0.32220906019210815,
				0.4257819652557373,
				-0.13018621504306793
			],
			"type":"VEC3"
		},
		{
			"bufferView":33,
			"componentType":5126,
			"count":14,
			"type":"VEC3"
		},
		{
			"bufferView":34,
			"componentType":5126,
			"count":14,
			"type":"VEC2"
		}
	],
	"bufferViews":[
		{
			"buffer":0,
			"byteLength":1608,
			"byteOffset":0,
			"target":34962
		},
		{
			"buffer":0,
			"byteLength":1608,
			"byteOffset":1608,
			"target":34962
		},
		{
			"buffer":0,
			"byteLength":1072,
			"byteOffset":3216,
			"target":34962
		},
		{
			"buffer":0,
			"byteLength":852,
			"byteOffset":4288,
			"target":34963
		},
		{
			"buffer":0,
			"byteLength":564,
			"byteOffset":5140,
			"target":34962
		},
		{
			"buffer":0,
			"byteLength":564,
			"byteOffset":5704,
			"target":34962
		},
		{
			"buffer":0,
			"byteLength":376,
			"byteOffset":6268,
			"target":34962
		},
		{
			"buffer":0,
			"byteLength":348,
			"byteOffset":6644,
			"target":34963
		},
		{
			"buffer":0,
			"byteLength":360,
			"byteOffset":6992,
			"target":34962
		},
		{
			"buffer":0,
			"byteLength":360,
			"byteOffset":7352,
			"target":34962
		},
		{
			"buffer":0,
			"byteLength":240,
			"byteOffset":7712,
			"target":34962
		},
		{
			"buffer":0,
			"byteLength":276,
			"byteOffset":7952,
			"target":34963
		},
		{
			"buffer":0,
			"byteLength":336,
			"byteOffset":8228,
			"target":34962
		},
		{
			"buffer":0,
			"byteLength":336,
			"byteOffset":8564,
			"target":34962
		},
		{
			"buffer":0,
			"byteLength":224,
			"byteOffset":8900,
			"target":34962
		},
		{
			"buffer":0,
			"byteLength":264,
			"byteOffset":9124,
			"target":34963
		},
		{
			"buffer":0,
			"byteLength":168,
			"byteOffset":9388,
			"target":34962
		},
		{
			"buffer":0,
			"byteLength":168,
			"byteOffset":9556,
			"target":34962
		},
		{
			"buffer":0,
			"byteLength":112,
			"byteOffset":9724,
			"target":34962
		},
		{
			"buffer":0,
			"byteLength":126,
			"byteOffset":9836,
			"target":34963
		},
		{
			"buffer":0,
			"byteLength":168,
			"byteOffset":9964,
			"target":34962
		},
		{
			"buffer":0,
			"byteLength":168,
			"byteOffset":10132,
			"target":34962
		},
		{
			"buffer":0,
			"byteLength":112,
			"byteOffset":10300,
			"target":34962
		},
		{
			"buffer":0,
			"byteLength":114,
			"byteOffset":10412,
			"target":34963
		},
		{
			"buffer":0,
			"byteLength":252,
			"byteOffset":10528,
			"target":34962
		},
		{
			"buffer":0,
			"byteLength":252,
			"byteOffset":10780,
			"target":34962
		},
		{
			"buffer":0,
			"byteLength":168,
			"byteOffset":11032,
			"target":34962
		},
		{
			"buffer":0,
			"byteLength":228,
			"byteOffset":11200,
			"target":34963
		},
		{
			"buffer":0,
			"byteLength":168,
			"byteOffset":11428,
			"target":34962
		},
		{
			"buffer":0,
			"byteLength":168,
			"byteOffset":11596,
			"target":34962
		},
		{
			"buffer":0,
			"byteLength":112,
			"byteOffset":11764,
			"target":34962
		},
		{
			"buffer":0,
			"byteLength":126,
			"byteOffset":11876,
			"target":34963
		},
		{
			"buffer":0,
			"byteLength":168,
			"byteOffset":12004,
			"target":34962
		},
		{
			"buffer":0,
			"byteLength":168,
			"byteOffset":12172,
			"target":34962
		},
		{
			"buffer":0,
			"byteLength":112,
			"byteOffset":12340,
			"target":34962
		}
	],
	"buffers":[
		{
			"byteLength":12452,
			"uri":"Player.bin"
		}
	]
}
