{
	"asset":{
		"generator":"Khronos glTF Blender I/O v3.6.27",
		"version":"2.0"
	},
	"scene":0,
	"scenes":[
		{
			"name":"Scene",
			"nodes":[
				0
			]
		}
	],
	"nodes":[
		{
			"mesh":0,
			"name":"CircleGround",
			"scale":[
				6.8934783935546875,
				1,
				1
			]
		}
	],
	"materials":[
		{
			"doubleSided":true,
			"name":"Sand",
			"pbrMetallicRoughness":{
				"baseColorFactor":[
					0.7156929969787598,
					0.6514052152633667,
					0.44520124793052673,
					1
				],
				"metallicFactor":0
			}
		},
		{
			"doubleSided":true,
			"name":"Ground",
			"pbrMetallicRoughness":{
				"baseColorFactor":[
					0.07496917247772217,
					0.20186665654182434,
					0.016385763883590698,
					1
				],
				"metallicFactor":0
			}
		},
		{
			"name":"SkySphereTex",
			"pbrMetallicRoughness":{
				"metallicFactor":0,
				"roughnessFactor":0.5
			}
		},
		{
			"name":"RiverDome",
			"pbrMetallicRoughness":{
				"metallicFactor":0,
				"roughnessFactor":0.5
			}
		}
	],
	"meshes":[
		{
			"name":"Cube.001",
			"primitives":[
				{
					"attributes":{
						"POSITION":0,
						"NORMAL":1,
						"TEXCOORD_0":2
					},
					"indices":3,
					"material":0
				},
				{
					"attributes":{
						"POSITION":4,
						"NORMAL":5,
						"TEXCOORD_0":6
					},
					"indices":7,
					"material":1
				},
				{
					"attributes":{
						"POSITION":8,
						"NORMAL":9,
						"TEXCOORD_0":10
					},
					"indices":11,
					"material":2
				},
				{
					"attributes":{
						"POSITION":12,
						"NORMAL":13,
						"TEXCOORD_0":14
					},
					"indices":15,
					"material":3
				}
			]
		}
	],
	"accessors":[
		{
			"bufferView":0,
			"componentType":5126,
			"count":128,
			"max":[
				4.40594482421875,
				0.5683304071426392,
				30.413352966308594
			],
			"min":[
				-4.417664527893066,
				-6.375504493713379,
				-30.411956787109375
			],
			"type":"VEC3"
		},
		{
			"bufferView":1,
			"componentType":5126,
			"count":128,
			"type":"VEC3"
		},
		{
			"bufferView":2,
			"componentType":5126,
			"count":128,
			"type":"VEC2"
		},
		{
			"bufferView":3,
			"componentType":5123,
			"count":576,
			"type":"SCALAR"
		},
		{
			"bufferView":4,
			"componentType":5126,
			"count":64,
			"max":[
				4.399011611938477,
				0.5683304071426392,
				30.306446075439453
			],
			"min":[
				-4.385683059692383,
				-5.4857072830200195,
				-30.30621337890625
			],
			"type":"VEC3"
		},
		{
			"bufferView":5,
			"componentType":5126,
			"count":64,
			"type":"VEC3"
		},
		{
			"bufferView":6,
			"componentType":5126,
			"count":64,
			"type":"VEC2"
		},
		{
			"bufferView":7,
			"componentType":5123,
			"count":192,
			"type":"SCALAR"
		},
		{
			"bufferView":8,
			"componentType":5126,
			"count":296,
			"max":[
				4.399011611938477,
				30.86559295654297,
				30.306446075439453
			],
			"min":[
				-4.385683059692383,
				0.5243755578994751,
				-30.30621337890625
			],
			"type":"VEC3"
		},
		{
			"bufferView":9,
			"componentType":5126,
			"count":296,
			"type":"VEC3"
		},
		{
			"bufferView":10,
			"componentType":5126,
			"count":296,
			"type":"VEC2"
		},
		{
			"bufferView":11,
			"componentType":5123,
			"count":1440,
			"type":"SCALAR"
		},
		{
			"bufferView":12,
			"componentType":5126,
			"count":263,
			"max":[
				2.5855519771575928,
				-6.336718559265137,
				17.87871551513672
			],
			"min":[
				-2.588212251663208,
				-20.786819458007812,
				-17.8785400390625
			],
			"type":"VEC3"
		},
		{
			"bufferView":13,
			"componentType":5126,
			"count":263,
			"type":"VEC3"
		},
		{
			"bufferView":14,
			"componentType":5126,
			"count":263,
			"type":"VEC2"
		},
		{
			"bufferView":15,
			"componentType":5123,
			"count":1248,
			"type":"SCALAR"
		}
	],
	"bufferViews":[
		{
			"buffer":0,
			"byteLength":1536,
			"byteOffset":0,
			"target":34962
		},
		{
			"buffer":0,
			"byteLength":1536,
			"byteOffset":1536,
			"target":34962
		},
		{
			"buffer":0,
			"byteLength":1024,
			"byteOffset":3072,
			"target":34962
		},
		{
			"buffer":0,
			"byteLength":1152,
			"byteOffset":4096,
			"target":34963
		},
		{
			"buffer":0,
			"byteLength":768,
			"byteOffset":5248,
			"target":34962
		},
		{
			"buffer":0,
			"byteLength":768,
			"byteOffset":6016,
			"target":34962
		},
		{
			"buffer":0,
			"byteLength":512,
			"byteOffset":6784,
			"target":34962
		},
		{
			"buffer":0,
			"byteLength":384,
			"byteOffset":7296,
			"target":34963
		},
		{
			"buffer":0,
			"byteLength":3552,
			"byteOffset":7680,
			"target":34962
		},
		{
			"buffer":0,
			"byteLength":3552,
			"byteOffset":11232,
			"target":34962
		},
		{
			"buffer":0,
			"byteLength":2368,
			"byteOffset":14784,
			"target":34962
		},
		{
			"buffer":0,
			"byteLength":2880,
			"byteOffset":17152,
			"target":34963
		},
		{
			"buffer":0,
			"byteLength":3156,
			"byteOffset":20032,
			"target":34962
		},
		{
			"buffer":0,
			"byteLength":3156,
			"byteOffset":23188,
			"target":34962
		},
		{
			"buffer":0,
			"byteLength":2104,
			"byteOffset":26344,
			"target":34962
		},
		{
			"buffer":0,
			"byteLength":2496,
			"byteOffset":28448,
			"target":34963
		}
	],
	"buffers":[
		{
			"byteLength":30944,
			"uri":"SphereGround.bin"
		}
	]
}
