{
	"asset":{
		"generator":"Khronos glTF Blender I/O v3.6.27",
		"version":"2.0"
	},
	"scene":0,
	"scenes":[
		{
			"name":"Scene",
			"nodes":[
				0,
				1
			]
		}
	],
	"nodes":[
		{
			"mesh":0,
			"name":"CircleGround",
			"scale":[
				6.8934783935546875,
				1,
				1
			]
		},
		{
			"mesh":1,
			"name":"SkySphere",
			"scale":[
				6.8934783935546875,
				1,
				1
			]
		}
	],
	"materials":[
		{
			"doubleSided":true,
			"name":"Sand",
			"pbrMetallicRoughness":{
				"baseColorFactor":[
					0.7156929969787598,
					0.6514052152633667,
					0.44520124793052673,
					1
				],
				"metallicFactor":0
			}
		},
		{
			"doubleSided":true,
			"name":"Ground",
			"pbrMetallicRoughness":{
				"baseColorFactor":[
					0.24620074033737183,
					0.5209951400756836,
					0.520995557308197,
					1
				],
				"metallicFactor":0,
				"roughnessFactor":0.5
			}
		},
		{
			"name":"SphereTex",
			"pbrMetallicRoughness":{
				"baseColorTexture":{
					"index":0
				},
				"metallicFactor":0,
				"roughnessFactor":0.5
			}
		}
	],
	"meshes":[
		{
			"name":"Cube.001",
			"primitives":[
				{
					"attributes":{
						"POSITION":0,
						"NORMAL":1,
						"TEXCOORD_0":2
					},
					"indices":3,
					"material":0
				},
				{
					"attributes":{
						"POSITION":4,
						"NORMAL":5,
						"TEXCOORD_0":6
					},
					"indices":7,
					"material":1
				}
			]
		},
		{
			"name":"Cube.002",
			"primitives":[
				{
					"attributes":{
						"POSITION":8,
						"NORMAL":9,
						"TEXCOORD_0":10
					},
					"indices":11,
					"material":2
				}
			]
		}
	],
	"textures":[
		{
			"sampler":0,
			"source":0
		}
	],
	"images":[
		{
			"mimeType":"image/png",
			"name":"1KTropDemo.hdr",
			"uri":"1KTropDemo.hdr"
		}
	],
	"accessors":[
		{
			"bufferView":0,
			"componentType":5126,
			"count":384,
			"max":[
				4.406221866607666,
				5.927757263183594,
				30.413354873657227
			],
			"min":[
				-4.417383670806885,
				-0.6039811372756958,
				-30.411958694458008
			],
			"type":"VEC3"
		},
		{
			"bufferView":1,
			"componentType":5126,
			"count":384,
			"type":"VEC3"
		},
		{
			"bufferView":2,
			"componentType":5126,
			"count":384,
			"type":"VEC2"
		},
		{
			"bufferView":3,
			"componentType":5123,
			"count":576,
			"type":"SCALAR"
		},
		{
			"bufferView":4,
			"componentType":5126,
			"count":128,
			"max":[
				4.399291038513184,
				5.927757263183594,
				30.306442260742188
			],
			"min":[
				-4.385404109954834,
				-0.12628227472305298,
				-30.30620765686035
			],
			"type":"VEC3"
		},
		{
			"bufferView":5,
			"componentType":5126,
			"count":128,
			"type":"VEC3"
		},
		{
			"bufferView":6,
			"componentType":5126,
			"count":128,
			"type":"VEC2"
		},
		{
			"bufferView":7,
			"componentType":5123,
			"count":192,
			"type":"SCALAR"
		},
		{
			"bufferView":8,
			"componentType":5126,
			"count":296,
			"max":[
				4.399291038513184,
				36.21846389770508,
				30.306442260742188
			],
			"min":[
				-4.385404109954834,
				5.879827499389648,
				-30.30620765686035
			],
			"type":"VEC3"
		},
		{
			"bufferView":9,
			"componentType":5126,
			"count":296,
			"type":"VEC3"
		},
		{
			"bufferView":10,
			"componentType":5126,
			"count":296,
			"type":"VEC2"
		},
		{
			"bufferView":11,
			"componentType":5123,
			"count":1440,
			"type":"SCALAR"
		}
	],
	"bufferViews":[
		{
			"buffer":0,
			"byteLength":4608,
			"byteOffset":0,
			"target":34962
		},
		{
			"buffer":0,
			"byteLength":4608,
			"byteOffset":4608,
			"target":34962
		},
		{
			"buffer":0,
			"byteLength":3072,
			"byteOffset":9216,
			"target":34962
		},
		{
			"buffer":0,
			"byteLength":1152,
			"byteOffset":12288,
			"target":34963
		},
		{
			"buffer":0,
			"byteLength":1536,
			"byteOffset":13440,
			"target":34962
		},
		{
			"buffer":0,
			"byteLength":1536,
			"byteOffset":14976,
			"target":34962
		},
		{
			"buffer":0,
			"byteLength":1024,
			"byteOffset":16512,
			"target":34962
		},
		{
			"buffer":0,
			"byteLength":384,
			"byteOffset":17536,
			"target":34963
		},
		{
			"buffer":0,
			"byteLength":3552,
			"byteOffset":17920,
			"target":34962
		},
		{
			"buffer":0,
			"byteLength":3552,
			"byteOffset":21472,
			"target":34962
		},
		{
			"buffer":0,
			"byteLength":2368,
			"byteOffset":25024,
			"target":34962
		},
		{
			"buffer":0,
			"byteLength":2880,
			"byteOffset":27392,
			"target":34963
		}
	],
	"samplers":[
		{
			"magFilter":9729,
			"minFilter":9987
		}
	],
	"buffers":[
		{
			"byteLength":30272,
			"uri":"SphereGround.bin"
		}
	]
}
