{
	"asset":{
		"generator":"Khronos glTF Blender I/O v3.6.27",
		"version":"2.0"
	},
	"scene":0,
	"scenes":[
		{
			"name":"Scene",
			"nodes":[
				0,
				1,
				2
			]
		}
	],
	"nodes":[
		{
			"mesh":0,
			"name":"CircleGround",
			"scale":[
				6.8934783935546875,
				1,
				1
			],
			"translation":[
				0.27122703194618225,
				0.21518906950950623,
				0
			]
		},
		{
			"mesh":1,
			"name":"Skydome",
			"scale":[
				6.8934783935546875,
				1,
				1
			],
			"translation":[
				0.27122703194618225,
				0.21518906950950623,
				0
			]
		},
		{
			"mesh":2,
			"name":"RiverDome",
			"scale":[
				6.8934783935546875,
				1,
				1
			],
			"translation":[
				0.27122703194618225,
				0.21518906950950623,
				0
			]
		}
	],
	"materials":[
		{
			"doubleSided":true,
			"name":"Sand",
			"pbrMetallicRoughness":{
				"baseColorFactor":[
					0.7156929969787598,
					0.6514052152633667,
					0.44520124793052673,
					1
				],
				"metallicFactor":0
			}
		},
		{
			"doubleSided":true,
			"name":"Ground",
			"pbrMetallicRoughness":{
				"baseColorFactor":[
					0.07496917247772217,
					0.20186665654182434,
					0.016385763883590698,
					1
				],
				"metallicFactor":0
			}
		},
		{
			"name":"SkyDome",
			"pbrMetallicRoughness":{
				"baseColorTexture":{
					"index":0
				},
				"metallicFactor":0,
				"roughnessFactor":0.5
			}
		},
		{
			"name":"RiveSide",
			"pbrMetallicRoughness":{
				"baseColorTexture":{
					"index":1
				},
				"metallicFactor":0
			}
		}
	],
	"meshes":[
		{
			"name":"Cube.001",
			"primitives":[
				{
					"attributes":{
						"POSITION":0,
						"NORMAL":1,
						"TEXCOORD_0":2
					},
					"indices":3,
					"material":0
				},
				{
					"attributes":{
						"POSITION":4,
						"NORMAL":5,
						"TEXCOORD_0":6
					},
					"indices":7,
					"material":1
				}
			]
		},
		{
			"name":"Cube.002",
			"primitives":[
				{
					"attributes":{
						"POSITION":8,
						"NORMAL":9,
						"TEXCOORD_0":10
					},
					"indices":11,
					"material":2
				}
			]
		},
		{
			"name":"Cube.003",
			"primitives":[
				{
					"attributes":{
						"POSITION":12,
						"NORMAL":13,
						"TEXCOORD_0":14
					},
					"indices":15,
					"material":3
				}
			]
		}
	],
	"textures":[
		{
			"sampler":0,
			"source":0
		},
		{
			"sampler":0,
			"source":1
		}
	],
	"images":[
		{
			"mimeType":"image/png",
			"name":"1KTropDemo.hdr",
			"uri":"1KTropDemo.hdr"
		},
		{
			"mimeType":"image/png",
			"name":"UnderWater.hdr.001",
			"uri":"UnderWater.hdr"
		}
	],
	"accessors":[
		{
			"bufferView":0,
			"componentType":5126,
			"count":128,
			"max":[
				0.39937734603881836,
				0.5000066757202148,
				3.041372299194336
			],
			"min":[
				-0.4829835891723633,
				-0.21116456389427185,
				-3.041158676147461
			],
			"type":"VEC3"
		},
		{
			"bufferView":1,
			"componentType":5126,
			"count":128,
			"type":"VEC3"
		},
		{
			"bufferView":2,
			"componentType":5126,
			"count":128,
			"type":"VEC2"
		},
		{
			"bufferView":3,
			"componentType":5123,
			"count":576,
			"type":"SCALAR"
		},
		{
			"bufferView":4,
			"componentType":5126,
			"count":64,
			"max":[
				0.3975074291229248,
				0.5000066757202148,
				3.023019790649414
			],
			"min":[
				-0.47809791564941406,
				-0.1048741340637207,
				-3.022928237915039
			],
			"type":"VEC3"
		},
		{
			"bufferView":5,
			"componentType":5126,
			"count":64,
			"type":"VEC3"
		},
		{
			"bufferView":6,
			"componentType":5126,
			"count":64,
			"type":"VEC2"
		},
		{
			"bufferView":7,
			"componentType":5123,
			"count":192,
			"type":"SCALAR"
		},
		{
			"bufferView":8,
			"componentType":5126,
			"count":296,
			"max":[
				0.3975074291229248,
				3.499483585357666,
				3.023019790649414
			],
			"min":[
				-0.47809791564941406,
				0.496673583984375,
				-3.022928237915039
			],
			"type":"VEC3"
		},
		{
			"bufferView":9,
			"componentType":5126,
			"count":296,
			"type":"VEC3"
		},
		{
			"bufferView":10,
			"componentType":5126,
			"count":296,
			"type":"VEC2"
		},
		{
			"bufferView":11,
			"componentType":5123,
			"count":1440,
			"type":"SCALAR"
		},
		{
			"bufferView":12,
			"componentType":5126,
			"count":263,
			"max":[
				0.21643191576004028,
				-0.2067468762397766,
				1.7710459232330322
			],
			"min":[
				-0.2963707447052002,
				-1.6706898212432861,
				-1.7710051536560059
			],
			"type":"VEC3"
		},
		{
			"bufferView":13,
			"componentType":5126,
			"count":263,
			"type":"VEC3"
		},
		{
			"bufferView":14,
			"componentType":5126,
			"count":263,
			"type":"VEC2"
		},
		{
			"bufferView":15,
			"componentType":5123,
			"count":1248,
			"type":"SCALAR"
		}
	],
	"bufferViews":[
		{
			"buffer":0,
			"byteLength":1536,
			"byteOffset":0,
			"target":34962
		},
		{
			"buffer":0,
			"byteLength":1536,
			"byteOffset":1536,
			"target":34962
		},
		{
			"buffer":0,
			"byteLength":1024,
			"byteOffset":3072,
			"target":34962
		},
		{
			"buffer":0,
			"byteLength":1152,
			"byteOffset":4096,
			"target":34963
		},
		{
			"buffer":0,
			"byteLength":768,
			"byteOffset":5248,
			"target":34962
		},
		{
			"buffer":0,
			"byteLength":768,
			"byteOffset":6016,
			"target":34962
		},
		{
			"buffer":0,
			"byteLength":512,
			"byteOffset":6784,
			"target":34962
		},
		{
			"buffer":0,
			"byteLength":384,
			"byteOffset":7296,
			"target":34963
		},
		{
			"buffer":0,
			"byteLength":3552,
			"byteOffset":7680,
			"target":34962
		},
		{
			"buffer":0,
			"byteLength":3552,
			"byteOffset":11232,
			"target":34962
		},
		{
			"buffer":0,
			"byteLength":2368,
			"byteOffset":14784,
			"target":34962
		},
		{
			"buffer":0,
			"byteLength":2880,
			"byteOffset":17152,
			"target":34963
		},
		{
			"buffer":0,
			"byteLength":3156,
			"byteOffset":20032,
			"target":34962
		},
		{
			"buffer":0,
			"byteLength":3156,
			"byteOffset":23188,
			"target":34962
		},
		{
			"buffer":0,
			"byteLength":2104,
			"byteOffset":26344,
			"target":34962
		},
		{
			"buffer":0,
			"byteLength":2496,
			"byteOffset":28448,
			"target":34963
		}
	],
	"samplers":[
		{
			"magFilter":9729,
			"minFilter":9987
		}
	],
	"buffers":[
		{
			"byteLength":30944,
			"uri":"SphereGround.bin"
		}
	]
}
