{
	"asset":{
		"generator":"Khronos glTF Blender I/O v3.6.27",
		"version":"2.0"
	},
	"scene":0,
	"scenes":[
		{
			"name":"Scene",
			"nodes":[
				0,
				1,
				2,
				3,
				4,
				5,
				6,
				7
			]
		}
	],
	"nodes":[
		{
			"mesh":0,
			"name":"Body",
			"rotation":[
				-0.5001109838485718,
				0.500110924243927,
				-0.4998891353607178,
				0.4998891353607178
			],
			"scale":[
				0.1935085952281952,
				1.2761651277542114,
				0.19350862503051758
			],
			"translation":[
				0.016253091394901276,
				-0.017286669462919235,
				0.3377966582775116
			]
		},
		{
			"mesh":1,
			"name":"Caudal",
			"rotation":[
				-0.5001109838485718,
				0.500110924243927,
				-0.4998891353607178,
				0.4998891353607178
			],
			"scale":[
				0.1935085952281952,
				1.2761651277542114,
				0.19350862503051758
			],
			"translation":[
				0.016253091394901276,
				-0.017286669462919235,
				0.3377966582775116
			]
		},
		{
			"mesh":2,
			"name":"Dorsal",
			"rotation":[
				-0.5001109838485718,
				0.500110924243927,
				-0.4998891353607178,
				0.4998891353607178
			],
			"scale":[
				0.1935085952281952,
				1.2761651277542114,
				0.19350862503051758
			],
			"translation":[
				0.016253091394901276,
				-0.017286669462919235,
				0.3377966582775116
			]
		},
		{
			"mesh":3,
			"name":"Pelvic_L",
			"rotation":[
				-0.5001109838485718,
				0.500110924243927,
				-0.4998891353607178,
				0.4998891353607178
			],
			"scale":[
				0.1935085952281952,
				1.2761651277542114,
				0.19350862503051758
			],
			"translation":[
				0.016253091394901276,
				-0.017286669462919235,
				0.3377966582775116
			]
		},
		{
			"mesh":4,
			"name":"Pelvic_R",
			"rotation":[
				-0.5001109838485718,
				0.500110924243927,
				-0.4998891353607178,
				0.4998891353607178
			],
			"scale":[
				0.1935085952281952,
				1.2761651277542114,
				0.19350862503051758
			],
			"translation":[
				0.016253091394901276,
				-0.017286669462919235,
				0.3377966582775116
			]
		},
		{
			"mesh":5,
			"name":"AnalFin",
			"rotation":[
				-0.5001109838485718,
				0.500110924243927,
				-0.4998891353607178,
				0.4998891353607178
			],
			"scale":[
				0.1935085952281952,
				1.2761651277542114,
				0.19350862503051758
			],
			"translation":[
				0.016253091394901276,
				-0.017286669462919235,
				0.3377966582775116
			]
		},
		{
			"mesh":6,
			"name":"Pectoral_L",
			"rotation":[
				-0.5001109838485718,
				0.500110924243927,
				-0.4998891353607178,
				0.4998891353607178
			],
			"scale":[
				0.1935085952281952,
				1.2761651277542114,
				0.19350862503051758
			],
			"translation":[
				-0.06767593324184418,
				0.2402065247297287,
				0.27770182490348816
			]
		},
		{
			"mesh":7,
			"name":"Pectoral_R",
			"rotation":[
				-0.5001109838485718,
				0.500110924243927,
				-0.4998891353607178,
				0.4998891353607178
			],
			"scale":[
				0.1935085952281952,
				1.2761651277542114,
				0.19350862503051758
			],
			"translation":[
				0.17160490155220032,
				0.20243579149246216,
				0.27891531586647034
			]
		}
	],
	"materials":[
		{
			"doubleSided":true,
			"emissiveFactor":[
				0.21651901304721832,
				0.005832066293805838,
				0.006132540758699179
			],
			"name":"BodyColor",
			"pbrMetallicRoughness":{
				"baseColorFactor":[
					0.8000000715255737,
					0.014541755430400372,
					0.015450241975486279,
					1
				],
				"metallicFactor":0,
				"roughnessFactor":0.60550457239151
			}
		},
		{
			"doubleSided":true,
			"emissiveFactor":[
				0.18781623244285583,
				0.12044566869735718,
				0.015080074779689312
			],
			"name":"BottomColor",
			"pbrMetallicRoughness":{
				"baseColorFactor":[
					0.8000000715255737,
					0.4998759925365448,
					0.05019303411245346,
					1
				],
				"metallicFactor":0
			}
		}
	],
	"meshes":[
		{
			"name":"\u5186\u67f1",
			"primitives":[
				{
					"attributes":{
						"POSITION":0,
						"NORMAL":1,
						"TEXCOORD_0":2
					},
					"indices":3,
					"material":0
				},
				{
					"attributes":{
						"POSITION":4,
						"NORMAL":5,
						"TEXCOORD_0":6
					},
					"indices":7,
					"material":1
				}
			]
		},
		{
			"name":"\u5186\u67f1.001",
			"primitives":[
				{
					"attributes":{
						"POSITION":8,
						"NORMAL":9,
						"TEXCOORD_0":10
					},
					"indices":11,
					"material":0
				}
			]
		},
		{
			"name":"\u5186\u67f1.002",
			"primitives":[
				{
					"attributes":{
						"POSITION":12,
						"NORMAL":13,
						"TEXCOORD_0":14
					},
					"indices":15,
					"material":0
				}
			]
		},
		{
			"name":"\u5186\u67f1.003",
			"primitives":[
				{
					"attributes":{
						"POSITION":16,
						"NORMAL":17,
						"TEXCOORD_0":18
					},
					"indices":19,
					"material":0
				}
			]
		},
		{
			"name":"\u5186\u67f1.004",
			"primitives":[
				{
					"attributes":{
						"POSITION":20,
						"NORMAL":21,
						"TEXCOORD_0":22
					},
					"indices":23,
					"material":0
				}
			]
		},
		{
			"name":"\u5186\u67f1.005",
			"primitives":[
				{
					"attributes":{
						"POSITION":24,
						"NORMAL":25,
						"TEXCOORD_0":26
					},
					"indices":27,
					"material":0
				}
			]
		},
		{
			"name":"\u5186\u67f1.006",
			"primitives":[
				{
					"attributes":{
						"POSITION":28,
						"NORMAL":29,
						"TEXCOORD_0":30
					},
					"indices":31,
					"material":0
				}
			]
		},
		{
			"name":"\u5186\u67f1.007",
			"primitives":[
				{
					"attributes":{
						"POSITION":32,
						"NORMAL":33,
						"TEXCOORD_0":34
					},
					"indices":23,
					"material":0
				}
			]
		}
	],
	"accessors":[
		{
			"bufferView":0,
			"componentType":5126,
			"count":156,
			"max":[
				1.296483039855957,
				1.2171612977981567,
				0.7622396945953369
			],
			"min":[
				-2.519184112548828,
				-0.3514833450317383,
				-0.67502760887146
			],
			"type":"VEC3"
		},
		{
			"bufferView":1,
			"componentType":5126,
			"count":156,
			"type":"VEC3"
		},
		{
			"bufferView":2,
			"componentType":5126,
			"count":156,
			"type":"VEC2"
		},
		{
			"bufferView":3,
			"componentType":5123,
			"count":426,
			"type":"SCALAR"
		},
		{
			"bufferView":4,
			"componentType":5126,
			"count":47,
			"max":[
				1.560086727142334,
				1.1769572496414185,
				0.5879550576210022
			],
			"min":[
				-0.2760120630264282,
				-0.3514833450317383,
				-0.3888581395149231
			],
			"type":"VEC3"
		},
		{
			"bufferView":5,
			"componentType":5126,
			"count":47,
			"type":"VEC3"
		},
		{
			"bufferView":6,
			"componentType":5126,
			"count":47,
			"type":"VEC2"
		},
		{
			"bufferView":7,
			"componentType":5123,
			"count":174,
			"type":"SCALAR"
		},
		{
			"bufferView":8,
			"componentType":5126,
			"count":34,
			"max":[
				-0.06371955573558807,
				-0.27039122581481934,
				0.12457927316427231
			],
			"min":[
				-2.8002099990844727,
				-0.6491291522979736,
				-0.17408736050128937
			],
			"type":"VEC3"
		},
		{
			"bufferView":9,
			"componentType":5126,
			"count":34,
			"type":"VEC3"
		},
		{
			"bufferView":10,
			"componentType":5126,
			"count":34,
			"type":"VEC2"
		},
		{
			"bufferView":11,
			"componentType":5123,
			"count":138,
			"type":"SCALAR"
		},
		{
			"bufferView":12,
			"componentType":5126,
			"count":28,
			"max":[
				-1.7283713817596436,
				0.4216729998588562,
				0.13363529741764069
			],
			"min":[
				-3.5096399784088135,
				-0.25233450531959534,
				-0.22300095856189728
			],
			"type":"VEC3"
		},
		{
			"bufferView":13,
			"componentType":5126,
			"count":28,
			"type":"VEC3"
		},
		{
			"bufferView":14,
			"componentType":5126,
			"count":28,
			"type":"VEC2"
		},
		{
			"bufferView":15,
			"componentType":5123,
			"count":132,
			"type":"SCALAR"
		},
		{
			"bufferView":16,
			"componentType":5126,
			"count":16,
			"max":[
				2.1499412059783936,
				0.5461441278457642,
				-0.46313050389289856
			],
			"min":[
				0.6859406232833862,
				0.2642383277416229,
				-0.8333809971809387
			],
			"type":"VEC3"
		},
		{
			"bufferView":17,
			"componentType":5126,
			"count":16,
			"type":"VEC3"
		},
		{
			"bufferView":18,
			"componentType":5126,
			"count":16,
			"type":"VEC2"
		},
		{
			"bufferView":19,
			"componentType":5123,
			"count":63,
			"type":"SCALAR"
		},
		{
			"bufferView":20,
			"componentType":5126,
			"count":18,
			"max":[
				2.30233097076416,
				0.5488641262054443,
				0.8199965357780457
			],
			"min":[
				0.718746542930603,
				0.2652624249458313,
				0.5203793048858643
			],
			"type":"VEC3"
		},
		{
			"bufferView":21,
			"componentType":5126,
			"count":18,
			"type":"VEC3"
		},
		{
			"bufferView":22,
			"componentType":5126,
			"count":18,
			"type":"VEC2"
		},
		{
			"bufferView":23,
			"componentType":5123,
			"count":57,
			"type":"SCALAR"
		},
		{
			"bufferView":24,
			"componentType":5126,
			"count":58,
			"max":[
				2.3408279418945312,
				0.23366700112819672,
				0.003517725970596075
			],
			"min":[
				0.007083974778652191,
				-0.4130416512489319,
				-0.15327532589435577
			],
			"type":"VEC3"
		},
		{
			"bufferView":25,
			"componentType":5126,
			"count":58,
			"type":"VEC3"
		},
		{
			"bufferView":26,
			"componentType":5126,
			"count":58,
			"type":"VEC2"
		},
		{
			"bufferView":27,
			"componentType":5123,
			"count":114,
			"type":"SCALAR"
		},
		{
			"bufferView":28,
			"componentType":5126,
			"count":16,
			"max":[
				1.7732264995574951,
				0.7844681143760681,
				-0.2720896601676941
			],
			"min":[
				0.5570822358131409,
				0.4496321678161621,
				-0.9341628551483154
			],
			"type":"VEC3"
		},
		{
			"bufferView":29,
			"componentType":5126,
			"count":16,
			"type":"VEC3"
		},
		{
			"bufferView":30,
			"componentType":5126,
			"count":16,
			"type":"VEC2"
		},
		{
			"bufferView":31,
			"componentType":5123,
			"count":63,
			"type":"SCALAR"
		},
		{
			"bufferView":32,
			"componentType":5126,
			"count":18,
			"max":[
				1.5058526992797852,
				0.7942072153091431,
				0.5294116139411926
			],
			"min":[
				0.32220906019210815,
				0.4257819652557373,
				-0.13018621504306793
			],
			"type":"VEC3"
		},
		{
			"bufferView":33,
			"componentType":5126,
			"count":18,
			"type":"VEC3"
		},
		{
			"bufferView":34,
			"componentType":5126,
			"count":18,
			"type":"VEC2"
		}
	],
	"bufferViews":[
		{
			"buffer":0,
			"byteLength":1872,
			"byteOffset":0,
			"target":34962
		},
		{
			"buffer":0,
			"byteLength":1872,
			"byteOffset":1872,
			"target":34962
		},
		{
			"buffer":0,
			"byteLength":1248,
			"byteOffset":3744,
			"target":34962
		},
		{
			"buffer":0,
			"byteLength":852,
			"byteOffset":4992,
			"target":34963
		},
		{
			"buffer":0,
			"byteLength":564,
			"byteOffset":5844,
			"target":34962
		},
		{
			"buffer":0,
			"byteLength":564,
			"byteOffset":6408,
			"target":34962
		},
		{
			"buffer":0,
			"byteLength":376,
			"byteOffset":6972,
			"target":34962
		},
		{
			"buffer":0,
			"byteLength":348,
			"byteOffset":7348,
			"target":34963
		},
		{
			"buffer":0,
			"byteLength":408,
			"byteOffset":7696,
			"target":34962
		},
		{
			"buffer":0,
			"byteLength":408,
			"byteOffset":8104,
			"target":34962
		},
		{
			"buffer":0,
			"byteLength":272,
			"byteOffset":8512,
			"target":34962
		},
		{
			"buffer":0,
			"byteLength":276,
			"byteOffset":8784,
			"target":34963
		},
		{
			"buffer":0,
			"byteLength":336,
			"byteOffset":9060,
			"target":34962
		},
		{
			"buffer":0,
			"byteLength":336,
			"byteOffset":9396,
			"target":34962
		},
		{
			"buffer":0,
			"byteLength":224,
			"byteOffset":9732,
			"target":34962
		},
		{
			"buffer":0,
			"byteLength":264,
			"byteOffset":9956,
			"target":34963
		},
		{
			"buffer":0,
			"byteLength":192,
			"byteOffset":10220,
			"target":34962
		},
		{
			"buffer":0,
			"byteLength":192,
			"byteOffset":10412,
			"target":34962
		},
		{
			"buffer":0,
			"byteLength":128,
			"byteOffset":10604,
			"target":34962
		},
		{
			"buffer":0,
			"byteLength":126,
			"byteOffset":10732,
			"target":34963
		},
		{
			"buffer":0,
			"byteLength":216,
			"byteOffset":10860,
			"target":34962
		},
		{
			"buffer":0,
			"byteLength":216,
			"byteOffset":11076,
			"target":34962
		},
		{
			"buffer":0,
			"byteLength":144,
			"byteOffset":11292,
			"target":34962
		},
		{
			"buffer":0,
			"byteLength":114,
			"byteOffset":11436,
			"target":34963
		},
		{
			"buffer":0,
			"byteLength":696,
			"byteOffset":11552,
			"target":34962
		},
		{
			"buffer":0,
			"byteLength":696,
			"byteOffset":12248,
			"target":34962
		},
		{
			"buffer":0,
			"byteLength":464,
			"byteOffset":12944,
			"target":34962
		},
		{
			"buffer":0,
			"byteLength":228,
			"byteOffset":13408,
			"target":34963
		},
		{
			"buffer":0,
			"byteLength":192,
			"byteOffset":13636,
			"target":34962
		},
		{
			"buffer":0,
			"byteLength":192,
			"byteOffset":13828,
			"target":34962
		},
		{
			"buffer":0,
			"byteLength":128,
			"byteOffset":14020,
			"target":34962
		},
		{
			"buffer":0,
			"byteLength":126,
			"byteOffset":14148,
			"target":34963
		},
		{
			"buffer":0,
			"byteLength":216,
			"byteOffset":14276,
			"target":34962
		},
		{
			"buffer":0,
			"byteLength":216,
			"byteOffset":14492,
			"target":34962
		},
		{
			"buffer":0,
			"byteLength":144,
			"byteOffset":14708,
			"target":34962
		}
	],
	"buffers":[
		{
			"byteLength":14852,
			"uri":"Player.bin"
		}
	]
}
