{
	"asset":{
		"generator":"Khronos glTF Blender I/O v3.6.27",
		"version":"2.0"
	},
	"scene":0,
	"scenes":[
		{
			"name":"Scene",
			"nodes":[
				0
			]
		}
	],
	"nodes":[
		{
			"mesh":0,
			"name":"Body",
			"rotation":[
				-0.5001109838485718,
				0.500110924243927,
				-0.4998891353607178,
				0.4998891353607178
			],
			"scale":[
				0.1935085952281952,
				1.2761651277542114,
				0.19350862503051758
			],
			"translation":[
				0.016253091394901276,
				-0.017286669462919235,
				0.4349350333213806
			]
		}
	],
	"materials":[
		{
			"doubleSided":true,
			"emissiveFactor":[
				0.21651901304721832,
				0.005832066293805838,
				0.006132540758699179
			],
			"name":"BodyColor",
			"pbrMetallicRoughness":{
				"baseColorFactor":[
					0.8000000715255737,
					0.014541755430400372,
					0.015450241975486279,
					1
				],
				"metallicFactor":0,
				"roughnessFactor":0.60550457239151
			}
		},
		{
			"doubleSided":true,
			"emissiveFactor":[
				0.18781623244285583,
				0.12044566869735718,
				0.015080074779689312
			],
			"name":"BottomColor",
			"pbrMetallicRoughness":{
				"baseColorFactor":[
					0.8000000715255737,
					0.4998759925365448,
					0.05019303411245346,
					1
				],
				"metallicFactor":0
			}
		}
	],
	"meshes":[
		{
			"name":"\u5186\u67f1",
			"primitives":[
				{
					"attributes":{
						"POSITION":0,
						"NORMAL":1,
						"TEXCOORD_0":2
					},
					"indices":3,
					"material":0
				},
				{
					"attributes":{
						"POSITION":4,
						"NORMAL":5,
						"TEXCOORD_0":6
					},
					"indices":7,
					"material":1
				}
			]
		}
	],
	"accessors":[
		{
			"bufferView":0,
			"componentType":5126,
			"count":324,
			"max":[
				1.9491301774978638,
				1.4026111364364624,
				0.8703404664993286
			],
			"min":[
				-3.5087890625,
				-0.9251973032951355,
				-0.7553037405014038
			],
			"type":"VEC3"
		},
		{
			"bufferView":1,
			"componentType":5126,
			"count":324,
			"type":"VEC3"
		},
		{
			"bufferView":2,
			"componentType":5126,
			"count":324,
			"type":"VEC2"
		},
		{
			"bufferView":3,
			"componentType":5123,
			"count":1062,
			"type":"SCALAR"
		},
		{
			"bufferView":4,
			"componentType":5126,
			"count":47,
			"max":[
				1.3714607954025269,
				1.38473641872406,
				0.5719503164291382
			],
			"min":[
				-0.2557082176208496,
				-0.6458263993263245,
				-0.45692428946495056
			],
			"type":"VEC3"
		},
		{
			"bufferView":5,
			"componentType":5126,
			"count":47,
			"type":"VEC3"
		},
		{
			"bufferView":6,
			"componentType":5126,
			"count":47,
			"type":"VEC2"
		},
		{
			"bufferView":7,
			"componentType":5123,
			"count":198,
			"type":"SCALAR"
		}
	],
	"bufferViews":[
		{
			"buffer":0,
			"byteLength":3888,
			"byteOffset":0,
			"target":34962
		},
		{
			"buffer":0,
			"byteLength":3888,
			"byteOffset":3888,
			"target":34962
		},
		{
			"buffer":0,
			"byteLength":2592,
			"byteOffset":7776,
			"target":34962
		},
		{
			"buffer":0,
			"byteLength":2124,
			"byteOffset":10368,
			"target":34963
		},
		{
			"buffer":0,
			"byteLength":564,
			"byteOffset":12492,
			"target":34962
		},
		{
			"buffer":0,
			"byteLength":564,
			"byteOffset":13056,
			"target":34962
		},
		{
			"buffer":0,
			"byteLength":376,
			"byteOffset":13620,
			"target":34962
		},
		{
			"buffer":0,
			"byteLength":396,
			"byteOffset":13996,
			"target":34963
		}
	],
	"buffers":[
		{
			"byteLength":14392,
			"uri":"Player.bin"
		}
	]
}
