{
	"asset":{
		"generator":"Khronos glTF Blender I/O v3.6.27",
		"version":"2.0"
	},
	"scene":0,
	"scenes":[
		{
			"name":"Scene",
			"nodes":[
				0
			]
		}
	],
	"nodes":[
		{
			"mesh":0,
			"name":"Body",
			"rotation":[
				-0.5001109838485718,
				0.500110924243927,
				-0.4998891353607178,
				0.4998891353607178
			],
			"scale":[
				0.1935085952281952,
				1.2761651277542114,
				0.19350862503051758
			],
			"translation":[
				0.016253091394901276,
				0.5844664573669434,
				0.2739025056362152
			]
		}
	],
	"materials":[
		{
			"doubleSided":true,
			"emissiveFactor":[
				0.21651901304721832,
				0.005832066293805838,
				0.006132540758699179
			],
			"name":"BodyColor",
			"pbrMetallicRoughness":{
				"baseColorFactor":[
					0.8000000715255737,
					0.014541755430400372,
					0.015450241975486279,
					1
				],
				"metallicFactor":0,
				"roughnessFactor":0.60550457239151
			}
		},
		{
			"doubleSided":true,
			"emissiveFactor":[
				0.18781623244285583,
				0.12044566869735718,
				0.015080074779689312
			],
			"name":"BottomColor",
			"pbrMetallicRoughness":{
				"baseColorFactor":[
					0.8000000715255737,
					0.4998759925365448,
					0.05019303411245346,
					1
				],
				"metallicFactor":0
			}
		}
	],
	"meshes":[
		{
			"name":"\u5186\u67f1",
			"primitives":[
				{
					"attributes":{
						"POSITION":0,
						"NORMAL":1,
						"TEXCOORD_0":2
					},
					"indices":3,
					"material":0
				},
				{
					"attributes":{
						"POSITION":4,
						"NORMAL":5,
						"TEXCOORD_0":6
					},
					"indices":7,
					"material":1
				}
			]
		}
	],
	"accessors":[
		{
			"bufferView":0,
			"componentType":5126,
			"count":247,
			"max":[
				1.7461196184158325,
				1.0213793516159058,
				1.9321311712265015
			],
			"min":[
				-3.7835280895233154,
				-1.5871769189834595,
				-1.8343998193740845
			],
			"type":"VEC3"
		},
		{
			"bufferView":1,
			"componentType":5126,
			"count":247,
			"type":"VEC3"
		},
		{
			"bufferView":2,
			"componentType":5126,
			"count":247,
			"type":"VEC2"
		},
		{
			"bufferView":3,
			"componentType":5123,
			"count":840,
			"type":"SCALAR"
		},
		{
			"bufferView":4,
			"componentType":5126,
			"count":44,
			"max":[
				1,
				1.0213793516159058,
				0.6499703526496887
			],
			"min":[
				-0.23548850417137146,
				-1.0660594701766968,
				-0.6499703526496887
			],
			"type":"VEC3"
		},
		{
			"bufferView":5,
			"componentType":5126,
			"count":44,
			"type":"VEC3"
		},
		{
			"bufferView":6,
			"componentType":5126,
			"count":44,
			"type":"VEC2"
		},
		{
			"bufferView":7,
			"componentType":5123,
			"count":180,
			"type":"SCALAR"
		}
	],
	"bufferViews":[
		{
			"buffer":0,
			"byteLength":2964,
			"byteOffset":0,
			"target":34962
		},
		{
			"buffer":0,
			"byteLength":2964,
			"byteOffset":2964,
			"target":34962
		},
		{
			"buffer":0,
			"byteLength":1976,
			"byteOffset":5928,
			"target":34962
		},
		{
			"buffer":0,
			"byteLength":1680,
			"byteOffset":7904,
			"target":34963
		},
		{
			"buffer":0,
			"byteLength":528,
			"byteOffset":9584,
			"target":34962
		},
		{
			"buffer":0,
			"byteLength":528,
			"byteOffset":10112,
			"target":34962
		},
		{
			"buffer":0,
			"byteLength":352,
			"byteOffset":10640,
			"target":34962
		},
		{
			"buffer":0,
			"byteLength":360,
			"byteOffset":10992,
			"target":34963
		}
	],
	"buffers":[
		{
			"byteLength":11352,
			"uri":"Player.bin"
		}
	]
}
